<?xml version="1.0" encoding="UTF-8"?>
<svg id="Layer_2" data-name="Layer 2" xmlns="http://www.w3.org/2000/svg" xmlns:xlink="http://www.w3.org/1999/xlink" viewBox="0 0 441.25 86.96">
  <defs>
    <style>
      .cls-1 {
        fill: url(#linear-gradient);
      }

      .cls-2 {
        fill: url(#linear-gradient-8);
      }

      .cls-3 {
        fill: url(#linear-gradient-9);
      }

      .cls-4 {
        fill: url(#linear-gradient-3);
      }

      .cls-5 {
        fill: url(#linear-gradient-4);
      }

      .cls-6 {
        fill: url(#linear-gradient-2);
      }

      .cls-7 {
        fill: url(#linear-gradient-6);
      }

      .cls-8 {
        fill: url(#linear-gradient-7);
      }

      .cls-9 {
        fill: url(#linear-gradient-5);
      }

      .cls-10 {
        fill: url(#linear-gradient-10);
      }
    </style>
    <linearGradient id="linear-gradient" x1="29.57" y1="-.32" x2="28.7" y2="34.33" gradientUnits="userSpaceOnUse">
      <stop offset="0" stop-color="#00bfff"/>
      <stop offset="1" stop-color="#0052cc"/>
    </linearGradient>
    <linearGradient id="linear-gradient-2" x1="33.28" y1="-.23" x2="32.41" y2="34.42" xlink:href="#linear-gradient"/>
    <linearGradient id="linear-gradient-3" x1="25.86" y1="-.42" x2="25" y2="34.24" xlink:href="#linear-gradient"/>
    <linearGradient id="linear-gradient-4" x1="91.81" y1="1.23" x2="90.94" y2="35.89" xlink:href="#linear-gradient"/>
    <linearGradient id="linear-gradient-5" x1="143.91" y1="2.53" x2="143.05" y2="37.19" xlink:href="#linear-gradient"/>
    <linearGradient id="linear-gradient-6" x1="194.53" y1="3.8" x2="193.66" y2="38.45" xlink:href="#linear-gradient"/>
    <linearGradient id="linear-gradient-7" x1="248.22" y1="5.14" x2="247.36" y2="39.8" xlink:href="#linear-gradient"/>
    <linearGradient id="linear-gradient-8" x1="302.19" y1="6.49" x2="301.33" y2="41.15" xlink:href="#linear-gradient"/>
    <linearGradient id="linear-gradient-9" x1="354.4" y1="7.8" x2="353.53" y2="42.45" xlink:href="#linear-gradient"/>
    <linearGradient id="linear-gradient-10" x1="411.04" y1="9.21" x2="410.17" y2="43.87" xlink:href="#linear-gradient"/>
  </defs>
  <g id="Layer_1-2" data-name="Layer 1">
    <g>
      <path class="cls-1" d="M36.4,86.96h-15.85c-2.46,0-4.8-.93-6.58-2.62l-10.97-10.37c-1.91-1.8-3-4.34-3-6.96V19.95c0-2.62,1.09-5.16,3-6.96L13.97,2.62c1.79-1.69,4.13-2.62,6.58-2.62h15.85c2.46,0,4.8,.93,6.58,2.62l10.97,10.37c1.91,1.8,3,4.34,3,6.96v47.05c0,2.62-1.09,5.16-3,6.96l-10.97,10.37c-1.79,1.69-4.13,2.62-6.58,2.62ZM20.55,7.19c-.61,0-1.2,.23-1.65,.65L7.94,18.21c-.48,.45-.75,1.09-.75,1.74v47.05c0,.66,.27,1.29,.75,1.74l10.97,10.37c.45,.42,1.03,.65,1.65,.65h15.85c.61,0,1.2-.23,1.65-.65l10.97-10.37c.48-.45,.75-1.09,.75-1.74V19.95c0-.66-.27-1.29-.75-1.74l-10.97-10.37c-.45-.42-1.03-.65-1.65-.65h-15.85Z"/>
      <path class="cls-6" d="M45.53,76.07c-.92,0-1.84-.35-2.54-1.05L15.53,47.55c-1.4-1.4-1.4-3.68,0-5.08,1.4-1.4,3.68-1.4,5.08,0l27.46,27.46c1.4,1.4,1.4,3.68,0,5.08-.7,.7-1.62,1.05-2.54,1.05Z"/>
      <path class="cls-4" d="M38.88,45.54c-.92,0-1.84-.35-2.54-1.05L8.88,17.03c-1.4-1.4-1.4-3.68,0-5.08,1.4-1.4,3.68-1.4,5.08,0l27.46,27.46c1.4,1.4,1.4,3.68,0,5.08-.7,.7-1.62,1.05-2.54,1.05Z"/>
      <g>
        <path class="cls-5" d="M67.42,66.6V19.91h8.37l31.26,37.22V19.91h7.07v46.69h-8.36l-31.32-37.29v37.29h-7Z"/>
        <path class="cls-9" d="M121.5,66.6V19.91h42.8v7h-35.73v12.84h28.73v7h-28.73v12.84h35.73v7h-42.8Z"/>
        <path class="cls-7" d="M170.39,66.6v-1.3l18.55-22.05-18.55-22.05v-1.3h8.11l15.04,17.83,14.98-17.83h8.11v1.3l-18.55,22.05,18.61,22.05v1.3h-8.17l-15.04-17.83-14.98,17.83h-8.11Z"/>
        <path class="cls-8" d="M223.82,28.34c0-1.56,.38-2.97,1.13-4.25,.76-1.27,1.77-2.29,3.05-3.05,1.27-.76,2.69-1.13,4.25-1.13h29.76c1.56,0,2.98,.38,4.28,1.13,1.3,.76,2.32,1.77,3.08,3.05,.76,1.28,1.13,2.69,1.13,4.25v38.26h-7.07v-16.34h-32.62v16.34h-7V28.34Zm39.62,14.91v-14.72c0-.43-.15-.81-.45-1.13-.3-.32-.67-.49-1.1-.49h-29.44c-.43,0-.81,.16-1.13,.49s-.49,.7-.49,1.13v14.72h32.62Z"/>
        <path class="cls-2" d="M278.03,66.6V19.91h38.19c1.56,0,2.98,.38,4.28,1.13,1.3,.76,2.32,1.77,3.08,3.05,.76,1.28,1.13,2.69,1.13,4.25v29.83c0,1.56-.38,2.97-1.13,4.25-.76,1.28-1.78,2.29-3.08,3.05-1.3,.76-2.72,1.13-4.28,1.13h-38.19Zm8.56-7h29.5c.43,0,.8-.16,1.1-.49,.3-.32,.45-.7,.45-1.13V28.54c0-.43-.15-.81-.45-1.13-.3-.32-.67-.49-1.1-.49h-29.5c-.43,0-.8,.16-1.1,.49s-.45,.7-.45,1.13v29.44c0,.43,.15,.81,.45,1.13s.67,.49,1.1,.49Z"/>
        <path class="cls-3" d="M332.11,66.6V19.91h42.8v7h-35.73v12.84h28.73v7h-28.73v12.84h35.73v7h-42.8Z"/>
        <path class="cls-10" d="M407.33,66.6l-27.04-46.69h8.17l22.37,38.78,22.24-38.78h8.17l-26.98,46.69h-6.94Z"/>
      </g>
    </g>
  </g>
</svg>