<?xml version="1.0" encoding="UTF-8"?>
<svg version="1.1" xmlns="http://www.w3.org/2000/svg" width="2316" height="390">
<path d="M0 0 C-0.5955018 10.69260021 -2.67585056 21.16662215 -4.5625 31.6875 C-4.8956018 33.56437872 -5.22828758 35.44133133 -5.56054688 37.31835938 C-6.36890216 41.87977256 -7.18288722 46.44014782 -8 51 C-8.64735107 51.01458252 -9.29470215 51.02916504 -9.96166992 51.04418945 C-34.67807435 51.66095539 -59.18039584 53.66659434 -82 64 C-80.8553125 65.3303125 -80.8553125 65.3303125 -79.6875 66.6875 C-79.13578125 67.33460937 -78.5840625 67.98171875 -78.015625 68.6484375 C-76.55714243 70.3500005 -75.08685203 72.04146615 -73.609375 73.7265625 C-61.13320432 88.0623756 -50.55660918 103.59562827 -41 120 C-40.58153809 120.7105957 -40.16307617 121.42119141 -39.73193359 122.15332031 C-12.43132308 168.74437392 10.5171685 230.7040694 -3.53613281 285.07421875 C-11.596754 314.75512442 -29.20282647 341.9951481 -56 358 C-66.83592881 364.02442649 -77.8446187 368.50658845 -90 371 C-91.33611328 371.28617187 -91.33611328 371.28617187 -92.69921875 371.578125 C-117.60850893 374.76179759 -142.77470273 369.88237433 -162.9375 354.375 C-193.78076135 328.5743671 -207.0270336 292.29467533 -211.22802734 253.07958984 C-216.76425679 190.87842373 -207.72222039 124.35721663 -172 72 C-170.6622986 70.00287592 -169.33120618 68.00146384 -168 66 C-199.91907718 53.65582622 -234.30070502 53.76512135 -266.03808594 67.23022461 C-290.19380023 77.95389777 -306.94224711 97.38874941 -316.53125 121.75 C-322.14756399 137.64005909 -325.13731154 154.33223877 -325.15821838 171.17495728 C-325.16315636 172.04104752 -325.16809434 172.90713776 -325.17318195 173.79947317 C-325.18840885 176.67051292 -325.19687692 179.54153058 -325.20532227 182.41259766 C-325.21491247 184.48301382 -325.2249232 186.55342807 -325.23532104 188.62384033 C-325.26225246 194.22223088 -325.28332539 199.82062975 -325.30332303 205.41904879 C-325.32525551 211.27802818 -325.35260854 217.13698224 -325.37937927 222.99594116 C-325.42920826 234.08079201 -325.47418327 245.16565699 -325.51740164 256.25053537 C-325.56685792 268.8744858 -325.62174483 281.49841081 -325.67708123 294.12233663 C-325.79075086 320.08153516 -325.89690557 346.04075717 -326 372 C-342.83 372 -359.66 372 -377 372 C-377.06793179 344.51236018 -377.12310628 317.02478918 -377.15543652 289.53708649 C-377.17085238 276.77176389 -377.19183996 264.00649746 -377.22631836 251.24121094 C-377.25638343 240.1045323 -377.27561329 228.96789438 -377.28226548 217.83117628 C-377.28614898 211.94388247 -377.29516335 206.05670506 -377.31719017 200.16944885 C-377.33782676 194.60775442 -377.34378002 189.04622234 -377.33932304 183.48449326 C-377.34013628 181.46274299 -377.34593776 179.44098626 -377.35761642 177.41926956 C-377.61897627 129.76414753 -364.33162879 82.58594636 -330.3125 47.875 C-307.03881244 25.0208284 -276.85994338 12.30999056 -245 7 C-244.3100293 6.88285645 -243.62005859 6.76571289 -242.90917969 6.64501953 C-209.97596445 1.34515012 -175.74625131 4.82658548 -145.3125 18.5625 C-144.0443042 19.13085571 -144.0443042 19.13085571 -142.75048828 19.71069336 C-138.42563824 21.70361816 -134.7438454 23.89664058 -130.875 26.6875 C-128.66634382 28.01154919 -128.66634382 28.01154919 -126 28 C-121.30039396 26.3172702 -117.1259399 23.51897364 -112.8984375 20.91015625 C-79.30052777 0.33630629 -38.09347151 -0.76724011 0 0 Z M-125 96 C-158.27003007 132.98735187 -163.21459018 191.50057867 -160.859375 238.82568359 C-159.16487756 264.99892953 -153.4828167 293.08363685 -133.72265625 311.8359375 C-123.73290658 319.77614025 -113.50135467 321.98546715 -101 321 C-85.54639895 317.76098766 -72.97255004 308.45934689 -63.7109375 295.89453125 C-50.40535991 275.43782863 -48.34613764 252.13618582 -52.96484375 228.6484375 C-63.44004502 179.86125382 -87.72363475 132.50285877 -123 97 C-123.66 96.67 -124.32 96.34 -125 96 Z " fill="#1A1A26" transform="translate(380,14)"/>
<path d="M0 0 C9.11835624 -0.30196128 18.2349796 -0.53254885 27.35725403 -0.67355824 C31.59397588 -0.74126038 35.82726586 -0.83295705 40.06201172 -0.98071289 C44.15369954 -1.1225744 48.24210177 -1.19980433 52.33605957 -1.23340416 C53.89298267 -1.25732443 55.44973634 -1.3040492 57.00524902 -1.37449074 C61.88880785 -1.58673153 66.29749752 -1.54610842 71 0 C74.78480903 3.92533093 76.77854388 8.00827584 79 13 C79.71039241 14.23914411 80.43753208 15.46928878 81.19897461 16.67773438 C81.76108643 17.64001953 82.32319824 18.60230469 82.90234375 19.59375 C83.55589844 20.71072266 84.20945312 21.82769531 84.8828125 22.97851562 C85.56772036 24.15233673 86.25261585 25.32616506 86.9375 26.5 C87.67562517 27.76246106 88.4139103 29.02482861 89.15234375 30.28710938 C90.67883499 32.89677803 92.20465344 35.50683821 93.72998047 38.1171875 C96.96339209 43.64942688 100.20523776 49.17671907 103.44683838 54.7041626 C105.21351927 57.71668371 106.97985387 60.7294078 108.74609375 63.7421875 C109.09655762 64.33998016 109.44702148 64.93777283 109.80810547 65.55368042 C111.94437461 69.19796561 114.07926543 72.84305449 116.21311951 76.48875427 C125.14433046 91.75146046 125.14433046 91.75146046 134.1328125 106.98046875 C134.80521973 108.11548828 135.47762695 109.25050781 136.17041016 110.41992188 C137.50257374 112.66051073 138.84068475 114.89757542 140.18505859 117.13085938 C143.50990285 122.67528631 146.68631292 128.24485271 149.65625 133.98828125 C150.25155518 135.10420654 150.84686035 136.22013184 151.46020508 137.36987305 C152.57824999 139.47685436 153.65909312 141.60418047 154.6940918 143.75317383 C156.26536684 146.66626234 157.52619274 148.79361602 160 151 C164.39201687 152.1359667 168.48569226 152.25307547 173 152 C173.27295898 151.28046143 173.54591797 150.56092285 173.82714844 149.81958008 C174.98060771 147.0466198 176.29738687 144.5052063 177.765625 141.88671875 C178.31855225 140.89873291 178.87147949 139.91074707 179.44116211 138.89282227 C180.33653687 137.30618774 180.33653687 137.30618774 181.25 135.6875 C181.87334229 134.57882568 182.49668457 133.47015137 183.13891602 132.32788086 C188.47873305 122.86059123 193.94123025 113.46700035 199.4375 104.08984375 C203.1321331 97.78429581 206.78852681 91.45705564 210.4375 85.125 C211.06003662 84.04484619 211.68257324 82.96469238 212.32397461 81.85180664 C213.58576826 79.66203666 214.84740534 77.47217645 216.10888672 75.28222656 C219.85864774 68.77412081 223.61312876 62.26873565 227.36816406 55.76367188 C230.53588707 50.27515754 233.69947716 44.78433215 236.85546875 39.2890625 C237.49742187 38.17273437 238.139375 37.05640625 238.80078125 35.90625 C239.99370457 33.83160075 241.18528611 31.75617888 242.375 29.6796875 C243.5412983 27.65274148 244.74703315 25.64813369 245.98486328 23.6640625 C247.68171796 20.8103034 248.76799731 17.93300125 249.87060547 14.8046875 C252.23315493 8.86916988 254.65448569 3.74661741 260 0 C270.66480713 -3.15884545 282.30277224 -1.97735386 293.27331543 -1.37329102 C297.41454804 -1.16713768 301.55822069 -1.07703931 305.703125 -0.9765625 C313.80880826 -0.76324257 321.90255752 -0.42293059 330 0 C328.58921411 3.64559012 327.01664061 6.71615343 324.83203125 9.96484375 C324.19467041 10.91705811 323.55730957 11.86927246 322.90063477 12.8503418 C322.21155029 13.869104 321.52246582 14.88786621 320.8125 15.9375 C320.09054443 17.01233643 319.36858887 18.08717285 318.62475586 19.19458008 C313.53812258 26.76229379 308.40533589 34.29878913 303.25854492 41.82568359 C297.18178274 50.71620548 291.15174817 59.6380273 285.125 68.5625 C284.32619919 69.74530045 284.32619919 69.74530045 283.51126099 70.95199585 C280.76928199 75.01224883 278.02762784 79.07272101 275.28613281 83.13330078 C270.54261498 90.15885898 265.79621698 97.18247076 261.04995728 104.20617676 C259.49890744 106.5016169 257.94803456 108.7971765 256.3972168 111.09277344 C251.62728059 118.15328822 246.85640542 125.21316218 242.08189392 132.27058411 C229.99304403 150.13980739 217.92656589 168.02187664 206 186 C210.71718962 193.54329489 215.63878247 200.90637902 220.75 208.1875 C222.17222303 210.22241306 223.59409726 212.25756993 225.015625 214.29296875 C225.70076172 215.27313965 226.38589844 216.25331055 227.09179688 217.26318359 C229.57880899 220.83014954 232.04290691 224.41238898 234.5 228 C241.61165394 238.37144298 248.81247407 248.68107634 256 259 C271.61706882 281.42097526 271.61706882 281.42097526 278.91918945 292.07592773 C282.57914229 297.40763494 286.28639477 302.70556281 290 308 C294.59102182 314.54535825 299.15211974 321.10927983 303.67138672 327.7043457 C307.79590386 333.71733137 311.95919545 339.70306712 316.125 345.6875 C316.81062012 346.67363281 317.49624023 347.65976562 318.20263672 348.67578125 C321.13206996 352.88794581 324.06425576 357.09773001 327.0234375 361.2890625 C327.45124512 361.89790283 327.87905273 362.50674316 328.31982422 363.1340332 C329.4078829 364.68148943 330.50060311 366.22566521 331.59375 367.76953125 C333 370 333 370 333 372 C323.96938754 372.51262325 314.94385122 372.90192061 305.90180683 373.13986778 C301.70100202 373.25417187 297.51021525 373.40859541 293.31518555 373.65966797 C266.37721951 375.22943459 266.37721951 375.22943459 259.29364014 370.0032959 C254.848081 364.89369116 252.35896549 359.07228378 250.05599976 352.7600708 C248.60862404 348.97705909 246.62234995 345.69428049 244.46875 342.28125 C243.14552639 340.021013 241.82260681 337.76059798 240.5 335.5 C235.51721995 326.98977833 230.52332594 318.4863764 225.5 310 C220.47667026 301.51361719 215.48381859 293.00961761 210.5 284.5 C205.49229172 275.9505652 200.4786242 267.40479421 195.4375 258.875 C194.93387939 258.02196289 194.43025879 257.16892578 193.91137695 256.29003906 C191.21064573 251.72042052 188.4986681 247.15777056 185.77268982 242.60317993 C184.27594484 240.10137588 182.78242098 237.59765582 181.28909302 235.09381104 C180.55868595 233.87127914 179.82666719 232.64970862 179.09298706 231.42913818 C178.07240729 229.73114264 177.05755279 228.02970989 176.04296875 226.328125 C175.45539795 225.3474707 174.86782715 224.36681641 174.26245117 223.35644531 C173 221 173 221 173 219 C168.46506592 218.70317879 164.40256716 218.80552507 160 220 C156.65246128 223.16135411 154.97926869 226.91847424 153.0625 231.0625 C151.8869459 233.37123549 150.70848709 235.67849394 149.52734375 237.984375 C148.9432373 239.16064453 148.35913086 240.33691406 147.75732422 241.54882812 C145.09922805 246.76900698 142.12172641 251.78161403 139.125 256.8125 C137.95769518 258.79964277 136.79236167 260.78794474 135.62890625 262.77734375 C135.03867676 263.78651855 134.44844727 264.79569336 133.84033203 265.83544922 C130.54819126 271.49646389 127.30561825 277.18581759 124.0625 282.875 C118.89945507 291.93089574 113.71628662 300.97461425 108.5 310 C102.01344066 321.22640783 95.57137625 332.47762836 89.14453125 343.73828125 C83.76667221 353.16093908 78.38277248 362.58014815 73 372 C49.24 372 25.48 372 1 372 C5.36329445 365.14339443 9.7346244 358.31622051 14.25 351.5625 C14.84079346 350.67763916 15.43158691 349.79277832 16.0402832 348.88110352 C23.48427706 337.75287281 31.01691682 326.68459073 38.54443359 315.61279297 C42.1387846 310.3254957 45.72773031 305.03453119 49.31698608 299.74377441 C51.29705332 296.82513539 53.27743678 293.90671096 55.2578125 290.98828125 C55.65012558 290.41012665 56.04243866 289.83197205 56.44664001 289.23629761 C58.80123939 285.76636487 61.15610073 282.29661007 63.51116943 278.82699585 C73.05929614 264.76015397 82.60185194 250.6895643 92.1328125 236.61108398 C96.51632468 230.13690397 100.90514596 223.66642477 105.3046875 217.203125 C106.58592512 215.319627 107.86706581 213.4360631 109.14819336 211.55249023 C109.94950739 210.37515661 110.75140259 209.19821827 111.55395508 208.02172852 C116.50517786 200.76352983 121.33155805 193.44351978 126 186 C125.62415771 185.44876465 125.24831543 184.8975293 124.86108398 184.32958984 C123.71711987 182.65177581 122.57315856 180.97395986 121.42919922 179.29614258 C120.08319071 177.32200776 118.73716152 175.34788703 117.39111328 173.3737793 C113.96730073 168.35237279 110.54375879 163.3307825 107.12109375 158.30859375 C99.0935105 146.53029022 91.05262197 134.76119695 83 123 C75.51910276 112.07383134 68.04833749 101.14087268 60.59082031 90.19873047 C54.40542069 81.12458033 48.20410858 72.06136451 42 63 C34.52737671 52.08591581 27.05996308 41.16835862 19.6171875 30.23388672 C16.49044359 25.64229586 13.35382195 21.05809165 10.1953125 16.48828125 C9.59396484 15.61623047 8.99261719 14.74417969 8.37304688 13.84570312 C7.2341096 12.19519849 6.09232053 10.54665698 4.94726562 8.90039062 C4.44130859 8.16626953 3.93535156 7.43214844 3.4140625 6.67578125 C2.74818115 5.7153894 2.74818115 5.7153894 2.06884766 4.7355957 C1 3 1 3 0 0 Z " fill="#0C6EFC" transform="translate(738,14)"/>
<path d="M0 0 C16.83 0 33.66 0 51 0 C51 122.76 51 245.52 51 372 C35.82 372 20.64 372 5 372 C5.45902304 355.67125807 5.45902304 355.67125807 5.66210938 348.609375 C5.79964895 343.82621432 5.93664998 339.04304326 6.07006836 334.25976562 C6.17789821 330.39524334 6.2884561 326.53080715 6.40075874 322.66641235 C6.44274894 321.20596981 6.48382252 319.74550055 6.5238781 318.28500366 C6.80207962 308.17167755 7.30942403 298.09296038 8 288 C5.36 288 2.72 288 0 288 C-0.10304443 288.61020996 -0.20608887 289.22041992 -0.31225586 289.84912109 C-1.45002199 296.08563236 -3.16645573 301.76325929 -5.5625 307.625 C-5.91256104 308.48601318 -6.26262207 309.34702637 -6.62329102 310.23413086 C-12.00184962 323.12767488 -18.56972578 334.6147613 -28 345 C-28.59941406 345.69222656 -29.19882813 346.38445312 -29.81640625 347.09765625 C-41.89993149 360.22511455 -59.38040301 368.73504346 -77 371 C-77.84433594 371.10957031 -78.68867187 371.21914063 -79.55859375 371.33203125 C-107.76284563 374.40216026 -136.74412628 369.34636806 -159.4375 351.5625 C-161.66307477 349.75005217 -163.84265665 347.89296304 -166 346 C-167.22976563 344.92298828 -167.22976563 344.92298828 -168.484375 343.82421875 C-197.40573276 316.5950681 -208.60134322 273.24716399 -209.91015625 234.80078125 C-209.93980469 233.54652344 -209.96945312 232.29226562 -210 231 C-210.03996094 229.85917969 -210.07992188 228.71835938 -210.12109375 227.54296875 C-210.99862644 181.54993203 -200.01863237 135.41663415 -167.75 101.375 C-147.45296323 81.64275034 -120.89238972 74.44351594 -93.26635742 74.71704102 C-66.40019996 75.3104566 -45.51480489 84.61912991 -26.7265625 103.91015625 C-12.6738462 119.37613435 -1.52789319 142.2502101 1 163 C3.97 163 6.94 163 10 163 C9.8131665 162.07340576 9.62633301 161.14681152 9.43383789 160.19213867 C7.44981163 150.12433986 5.98579679 140.0411784 4.74731445 129.85668945 C4.43980211 127.3314049 4.12383774 124.80728749 3.80664062 122.28320312 C3.17305565 117.19227946 2.5798269 112.09730262 2 107 C1.86160359 105.78342587 1.86160359 105.78342587 1.7204113 104.54227448 C0.25827787 91.36821078 -0.27407386 78.3847319 -0.1953125 65.13671875 C-0.19156717 63.23859305 -0.18872743 61.34046538 -0.18673706 59.44233704 C-0.17921991 54.52540435 -0.15967903 49.60859606 -0.1373291 44.69171143 C-0.11294461 38.74998291 -0.10403275 32.80821202 -0.09242249 26.86644745 C-0.07324356 17.91087932 -0.03483909 8.95558234 0 0 Z M-130.96875 139.5703125 C-154.28227955 167.45688054 -159.57355664 205.66540316 -156.53515625 240.92578125 C-154.15208993 264.46235581 -148.3442176 288.14063797 -132 306 C-131.39800781 306.69351563 -130.79601563 307.38703125 -130.17578125 308.1015625 C-119.25455658 319.96150879 -104.19830653 326.22328111 -88.2578125 327.23828125 C-68.42794068 327.7737046 -51.18421785 322.04989004 -36 309 C-35.39929687 308.53078125 -34.79859375 308.0615625 -34.1796875 307.578125 C-14.77374206 292.08817752 -3.05958445 264.24073746 0 240 C0.31742195 234.97602515 0.38208811 229.97067783 0.375 224.9375 C0.37368576 223.91178894 0.37368576 223.91178894 0.37234497 222.86535645 C0.32570823 211.80873652 -0.54704032 201.55344667 -4 191 C-4.24137695 190.23864746 -4.48275391 189.47729492 -4.73144531 188.69287109 C-9.89983302 172.71637702 -16.83688661 157.67633543 -28 145 C-29.175625 143.453125 -29.175625 143.453125 -30.375 141.875 C-42.97305324 128.07713216 -59.96167744 119.94716507 -78.53515625 118.77734375 C-99.05433664 118.28929706 -116.72614599 124.56888123 -130.96875 139.5703125 Z " fill="#1A1A26" transform="translate(1562,14)"/>
<path d="M0 0 C0.6909375 0.63035156 1.381875 1.26070312 2.09375 1.91015625 C2.7021875 2.42707031 3.310625 2.94398437 3.9375 3.4765625 C22.68844897 20.48026395 29.69048101 49.26586836 31.26677322 73.57889938 C31.53924648 80.10301439 31.53482694 86.62755877 31.53515625 93.15625 C31.5469971 95.26189557 31.56037688 97.36753296 31.57518005 99.47315979 C31.61103733 104.98765426 31.63143398 110.50207666 31.64672852 116.0166626 C31.7708112 159.42571782 32.8245548 202.62322847 36.21875 245.91015625 C36.49255773 249.47934905 36.76434875 253.04868461 37.03439331 256.61816406 C37.19875082 258.78307453 37.36550665 260.94780489 37.53518677 263.11230469 C37.6456282 264.54558105 37.6456282 264.54558105 37.75830078 266.0078125 C37.82332794 266.83804932 37.8883551 267.66828613 37.95535278 268.52368164 C38.09792459 270.98214142 38.09375 273.4475659 38.09375 275.91015625 C22.58375 275.91015625 7.07375 275.91015625 -8.90625 275.91015625 C-9.75685393 272.50774051 -10.15209464 269.62712412 -10.38696289 266.15454102 C-10.46697037 264.99555801 -10.54697784 263.83657501 -10.62940979 262.64247131 C-10.75291054 260.76597145 -10.75291054 260.76597145 -10.87890625 258.8515625 C-10.96627548 257.55629135 -11.05364471 256.2610202 -11.1436615 254.92649841 C-11.32841703 252.18040204 -11.51046511 249.43414252 -11.69067383 246.68774414 C-11.91947646 243.20468038 -12.15537445 239.72214152 -12.39345646 236.23970127 C-12.6219239 232.88142868 -12.84381638 229.52272978 -13.06640625 226.1640625 C-13.15076431 224.93128067 -13.23512238 223.69849884 -13.32203674 222.42835999 C-13.83023707 214.57707617 -14.00540346 206.77720174 -13.90625 198.91015625 C-16.83798177 199.16282457 -16.83798177 199.16282457 -19.90625 199.91015625 C-21.54631815 202.40244673 -22.68223279 204.52054542 -23.84375 207.22265625 C-24.5296512 208.69536496 -25.21848358 210.16671184 -25.91015625 211.63671875 C-26.2467627 212.36536133 -26.58336914 213.09400391 -26.93017578 213.84472656 C-39.08999183 239.57560294 -61.00079985 261.13855849 -87.90625 270.91015625 C-114.21545546 279.22154287 -143.77214559 278.72192097 -168.90625 266.91015625 C-186.19241432 257.6341473 -198.02232745 242.94392507 -204.16796875 224.42578125 C-210.75310861 201.98752693 -209.85195045 176.28646351 -199.21875 155.28515625 C-195.86493782 149.42862493 -191.6545768 144.67441703 -186.90625 139.91015625 C-186.24109375 139.22179687 -185.5759375 138.5334375 -184.890625 137.82421875 C-154.6761036 108.64760076 -102.37837236 105.33080923 -63.03222656 99.35742188 C-40.75716296 96.93185944 -40.75716296 96.93185944 -23.09375 84.73828125 C-18.33814986 77.41715998 -18.99315194 67.14880644 -20.44140625 58.83984375 C-22.58910939 50.41333635 -25.77051519 43.70314132 -31.734375 37.35546875 C-32.90625 35.91015625 -32.90625 35.91015625 -32.90625 33.91015625 C-33.49535156 33.62914062 -34.08445312 33.348125 -34.69140625 33.05859375 C-36.71821922 32.00765369 -38.47672005 30.84082975 -40.34375 29.53515625 C-56.10605724 19.53954678 -79.68181548 19.64717158 -97.44995117 23.03735352 C-115.97179001 27.21639848 -133.73697951 36.27527915 -144.15625 52.72265625 C-148.81017365 60.98084143 -151.3705142 69.59470621 -152.90625 78.91015625 C-156.13605454 79.97685929 -157.98142912 79.84023621 -161.18408203 78.75439453 C-162.01819611 78.47725616 -162.85231018 78.2001178 -163.71170044 77.9145813 C-164.60347992 77.60632416 -165.4952594 77.29806702 -166.4140625 76.98046875 C-167.33589325 76.67068085 -168.257724 76.36089294 -169.20748901 76.04171753 C-172.15215554 75.04931231 -175.09158233 74.04226017 -178.03125 73.03515625 C-180.01921785 72.36365482 -182.00749583 71.69307075 -183.99609375 71.0234375 C-187.6283154 69.79591799 -191.25990529 68.5666979 -194.88720703 67.32470703 C-195.61682648 67.07520294 -196.34644592 66.82569885 -197.09817505 66.56863403 C-198.90625 65.91015625 -198.90625 65.91015625 -200.90625 64.91015625 C-195.5853782 38.90089474 -181.89211508 15.37426463 -159.72900391 0.07055664 C-156.85858424 -1.7856811 -153.91488084 -3.46889313 -150.90625 -5.08984375 C-149.95226318 -5.60901367 -149.95226318 -5.60901367 -148.97900391 -6.13867188 C-106.91439189 -28.54836952 -38.20615935 -33.04832784 0 0 Z M-22.39453125 123.046875 C-38.50081411 128.28240753 -54.91042748 130.93995848 -71.58544922 133.67871094 C-108.3490669 138.6233068 -108.3490669 138.6233068 -140.90625 154.91015625 C-141.88851563 155.62945312 -141.88851563 155.62945312 -142.890625 156.36328125 C-151.54924779 163.09776564 -155.6047676 172.11210753 -157.375 182.71875 C-158.9756051 196.41483686 -156.5623974 209.11453291 -148.15625 220.22265625 C-138.51679877 230.8260526 -124.76272598 234.28434825 -110.96875 235.16015625 C-85.80730509 234.76904571 -64.23056429 222.68737526 -46.34375 205.78515625 C-40.54421541 199.69510694 -35.37903962 193.13063014 -30.55810547 186.24804688 C-29.48325508 184.72679838 -28.38170094 183.22395759 -27.25048828 181.74414062 C-14.0308851 164.11800305 -16.84336327 142.79773868 -17.90625 121.91015625 C-19.35925469 121.85851753 -19.35925469 121.85851753 -22.39453125 123.046875 Z " fill="#1A1A26" transform="translate(1285.90625,110.08984375)"/>
<path d="M0 0 C0.71397949 -0.00067474 1.42795898 -0.00134949 2.16357422 -0.00204468 C13.22088199 0.01454625 23.87171927 0.4980269 34.625 3.25 C35.62708496 3.49943359 35.62708496 3.49943359 36.64941406 3.75390625 C64.31144919 10.88397736 86.88507191 27.68543593 101.73876953 52.07910156 C117.99671472 79.76254426 122.91284416 111.85830953 122.6875 143.5625 C122.68298828 144.79162109 122.67847656 146.02074219 122.67382812 147.28710938 C122.66220289 150.27479356 122.64586559 153.26236855 122.625 156.25 C108.87514169 156.42890204 95.12513965 156.59422399 81.375 156.75 C80.32723389 156.76187725 79.27946777 156.7737545 78.19995117 156.78599167 C41.00786472 157.20347441 3.81929934 157.33902 -33.375 157.3125 C-34.58426651 157.31164398 -35.79353302 157.31078796 -37.03944397 157.30990601 C-51.81797816 157.29865465 -66.59648985 157.27879083 -81.375 157.25 C-81.08601017 160.88608752 -80.78609208 164.52119821 -80.484375 168.15625 C-80.40364746 169.17364258 -80.32291992 170.19103516 -80.23974609 171.23925781 C-78.19507462 195.58058485 -70.46906585 219.02793732 -52.375 236.25 C-31.97071239 253.47439863 -5.90538911 255.33864108 19.625 254.25 C35.94008684 252.84075482 53.8973971 245.3624255 64.7421875 232.796875 C70.84525761 225.11152746 74.79454697 217.25057227 78.625 208.25 C79.18982143 206.93347241 79.75491673 205.61706228 80.3203125 204.30078125 C80.75085937 203.29402344 81.18140625 202.28726563 81.625 201.25 C96.37718411 204.23911954 111.00432424 207.67585807 125.625 211.25 C125.08880271 216.92107484 124.00369611 221.76501365 121.9375 227.0625 C121.6698584 227.75754639 121.4022168 228.45259277 121.12646484 229.16870117 C110.7295389 255.52037083 90.64017246 275.36394358 64.96484375 286.94140625 C46.14168523 295.03047173 26.35330574 297.66734584 6 297.5625 C5.26031982 297.56067719 4.52063965 297.55885437 3.75854492 297.55697632 C-34.16267824 297.40034873 -68.72749497 286.93502026 -95.94140625 259.6796875 C-112.15966705 242.17164961 -121.58478604 221.52496215 -127.1875 198.5625 C-127.38239014 197.76900146 -127.57728027 196.97550293 -127.77807617 196.15795898 C-131.00638471 182.05669591 -131.75179245 168.02704996 -131.6875 153.625 C-131.68600952 152.79505524 -131.68451904 151.96511047 -131.6829834 151.11001587 C-131.64064475 137.95896896 -130.96204419 125.17685768 -128.375 112.25 C-128.23578125 111.51700684 -128.0965625 110.78401367 -127.953125 110.02880859 C-122.29942837 80.90310984 -109.68497935 55.84589983 -89.375 34.25 C-88.83746094 33.64800781 -88.29992188 33.04601562 -87.74609375 32.42578125 C-65.62226932 8.63851137 -31.29474041 0.02653469 0 0 Z M-58.49609375 69.70703125 C-69.24643751 83.68457372 -79.375 104.3553753 -79.375 122.25 C-66.23566037 122.2736037 -53.0963261 122.29115132 -39.95696926 122.30181217 C-33.84996711 122.30693948 -27.74297989 122.31384152 -21.63598633 122.32543945 C10.46561408 122.38481584 42.53407833 122.10234148 74.625 121.25 C74.47505075 119.17007934 74.32223614 117.09036513 74.16821289 115.01074219 C74.08342178 113.85257996 73.99863068 112.69441772 73.91127014 111.50115967 C72.46570165 95.08389043 65.51548848 78.59255361 54.625 66.25 C54.01269531 65.44046875 53.40039062 64.6309375 52.76953125 63.796875 C42.69520069 51.83246056 26.82586099 45.37505739 11.625 43.25 C-15.2241094 40.97308013 -40.49985116 48.86055503 -58.49609375 69.70703125 Z " fill="#1A1A26" transform="translate(1779.375,88.75)"/>
<path d="M0 0 C11.55041973 10.18478104 19.74221397 21.55460299 26.6875 35.25 C27.17992187 36.21808594 27.67234375 37.18617188 28.1796875 38.18359375 C33.06463226 48.39343171 36.36096561 59.17949288 38.875 70.1875 C39.02976807 70.85338135 39.18453613 71.5192627 39.34399414 72.20532227 C42.37699889 86.20266393 42.96543346 99.99544742 42.8125 114.25 C42.80243256 115.91145283 42.79331347 117.57291169 42.78515625 119.234375 C42.76348111 123.23973681 42.72916743 127.24479835 42.6875 131.25 C29.12514711 131.42920737 15.56264483 131.59445986 2 131.75 C0.44745073 131.76781588 0.44745073 131.76781588 -1.13646317 131.78599167 C-38.34138638 132.20866676 -75.54282155 132.33875077 -112.75 132.3125 C-114.58312052 132.31121597 -114.58312052 132.31121597 -116.45327377 132.30990601 C-131.40636448 132.29864225 -146.35943299 132.27875878 -161.3125 132.25 C-160.85628865 136.22727784 -160.39173814 140.20354057 -159.92578125 144.1796875 C-159.79788208 145.29561279 -159.66998291 146.41153809 -159.53820801 147.5612793 C-156.63700171 172.16964502 -149.35416266 195.87349962 -129.71484375 212.44140625 C-108.21005505 228.74791509 -81.9296115 231.71037425 -55.61328125 228.82421875 C-42.2397675 226.6551812 -29.3494686 221.49237525 -19.3125 212.25 C-18.714375 211.74210938 -18.11625 211.23421875 -17.5 210.7109375 C-7.3709015 201.53144198 -2.58645233 188.86139723 1.6875 176.25 C11.35840246 177.83513355 20.84892241 180.10246835 30.375 182.375 C31.96282854 182.75156397 33.55071876 183.12786797 35.13867188 183.50390625 C38.98899808 184.41627859 42.8384753 185.3321532 46.6875 186.25 C42.05363 212.19180689 26.88843476 235.53147397 5.5 250.9375 C-26.82036194 272.23091493 -68.9679559 277.63623753 -106.72265625 270.28515625 C-108.25488679 269.95038598 -109.78480632 269.60489941 -111.3125 269.25 C-112.60003174 268.95198486 -112.60003174 268.95198486 -113.91357422 268.64794922 C-126.1986955 265.69021488 -137.37466045 261.58136538 -148.3125 255.25 C-148.92174316 254.90066406 -149.53098633 254.55132812 -150.15869141 254.19140625 C-159.2276697 248.90540449 -166.89610045 242.65581981 -174.3125 235.25 C-175.10269531 234.47140625 -175.89289063 233.6928125 -176.70703125 232.890625 C-204.60836619 203.76769045 -211.96074255 160.77013879 -211.29321289 121.99755859 C-210.08595435 83.48238653 -200.00946216 46.33827333 -175.3125 16.25 C-174.64347656 15.42628906 -173.97445312 14.60257813 -173.28515625 13.75390625 C-154.62703104 -8.26191839 -125.78179342 -21.43817732 -97.40429688 -24.50683594 C-62.91661794 -27.21922762 -27.34275956 -23.02016343 0 0 Z M-135.9375 42.9375 C-149.22924986 58.31560919 -156.09616423 77.40522567 -159.3125 97.25 C-146.04277652 97.27359875 -132.77305834 97.29114898 -119.50331783 97.30181217 C-113.33578161 97.30694049 -107.16826015 97.31384459 -101.00073242 97.32543945 C-68.7567025 97.38447954 -36.54578136 97.10811413 -4.3125 96.25 C-4.59246914 93.58621779 -4.88158061 90.92393661 -5.17578125 88.26171875 C-5.25284302 87.51950073 -5.32990479 86.77728271 -5.40930176 86.01257324 C-7.35513704 68.68851432 -14.66635013 52.20313263 -26.3125 39.25 C-26.84230469 38.62738281 -27.37210938 38.00476563 -27.91796875 37.36328125 C-38.12377731 26.1494916 -54.52727496 19.03164747 -69.5847168 18.11108398 C-95.6777857 17.09976325 -117.56898964 23.63341186 -135.9375 42.9375 Z " fill="#1A1A26" transform="translate(625.3125,113.75)"/>
<path d="M0 0 C19.47 0 38.94 0 59 0 C74.16714621 45.09151574 88.68368676 90.40053789 103.15649414 135.71899414 C107.76110467 150.13720895 112.38963816 164.54760425 117.02679443 178.9553833 C122.62551084 196.35447574 128.22077138 213.75475759 133.7640686 231.17160034 C134.33337973 232.95928692 134.90365593 234.74666648 135.47494507 236.53372192 C136.24913798 238.95649066 137.0196639 241.38039272 137.7890625 243.8046875 C138.01621445 244.51321365 138.24336639 245.22173981 138.47740173 245.95173645 C140 250.77102427 140 250.77102427 140 253 C142.31 252.67 144.62 252.34 147 252 C160.40754152 210.04479447 173.8041566 168.08612969 187.17989922 126.12077522 C190.47937969 115.76892941 193.78031207 105.41754757 197.08228302 95.0664959 C198.53116646 90.52440125 199.97985205 85.9822435 201.42855453 81.44009113 C202.60568878 77.749475 203.78296901 74.05890555 204.96057129 70.36843872 C209.40214355 56.44888187 213.8403595 42.52841416 218.234375 28.59375 C218.54861923 27.59813049 218.86286346 26.60251099 219.18663025 25.57672119 C220.59854349 21.10284194 222.00761857 16.62811811 223.41040039 12.15136719 C223.88416067 10.64774969 224.35802933 9.14416634 224.83203125 7.640625 C225.1459079 6.63219543 225.1459079 6.63219543 225.46612549 5.60339355 C226.88644954 1.11355046 226.88644954 1.11355046 228 0 C229.81055025 -0.09376053 231.62477201 -0.1174411 233.43774414 -0.11352539 C234.59887222 -0.11344986 235.76000031 -0.11337433 236.95631409 -0.11329651 C238.85159096 -0.10555458 238.85159096 -0.10555458 240.78515625 -0.09765625 C242.71408974 -0.09553383 242.71408974 -0.09553383 244.68199158 -0.09336853 C248.10643443 -0.08954418 251.53083509 -0.07971462 254.95526123 -0.06866455 C258.44738189 -0.05844864 261.93950934 -0.05387053 265.43164062 -0.04882812 C272.28777778 -0.03809227 279.14388687 -0.02101684 286 0 C283.91775312 7.18942745 281.57450088 14.25716648 279.078125 21.3125 C278.70170364 22.38200897 278.32528229 23.45151794 277.93745422 24.55343628 C276.71072645 28.036484 275.48050059 31.51828353 274.25 35 C273.38654566 37.44804708 272.52318412 39.8961269 271.65991211 42.34423828 C265.14765446 60.80015657 258.58447951 79.23762175 251.98500061 97.6625061 C248.17817674 108.29139514 244.3828155 118.92437666 240.5864563 129.55700684 C238.44718577 135.54850169 236.30762706 141.53989362 234.16796875 147.53125 C233.73939072 148.73134705 233.31081268 149.93144409 232.86924744 151.16790771 C230.34037145 158.2486772 227.81022279 165.32899025 225.27886963 172.40887451 C223.63748004 176.99972396 221.9964954 181.59071806 220.35565186 186.1817627 C219.53694914 188.47240868 218.71814261 190.76301757 217.89923096 193.05358887 C213.19605592 206.21070527 208.50879731 219.37326826 203.84963226 232.54602432 C203.09990101 234.66552903 202.34983754 236.78491588 201.59967041 238.90426636 C201.10338644 240.306455 200.60710956 241.70864616 200.11083984 243.11083984 C199.7444125 244.14614995 199.7444125 244.14614995 199.37058258 245.20237541 C197.94435639 249.23302929 196.52076853 253.26460243 195.09925556 257.29692078 C194.42629138 259.20452035 193.75203219 261.11165669 193.07725525 263.01861572 C192.26153651 265.32410881 191.44779764 267.63030411 190.63673401 269.93743896 C187.2890594 279.38325431 183.63837334 288.64418284 180 298 C155.58 298 131.16 298 106 298 C99.50907005 280.29746377 93.03244447 262.60001874 86.7104187 244.83804321 C84.56113363 238.79985431 82.40709863 232.76335892 80.25390625 226.7265625 C79.8152272 225.49627823 79.37654816 224.26599396 78.92457581 222.99842834 C74.44280932 210.43145645 69.94207582 197.87131076 65.4375 185.3125 C64.65039011 183.11775735 63.86328074 180.92301451 63.07617188 178.72827148 C61.5038747 174.34435397 59.93141727 169.96049396 58.35888672 165.57666016 C54.80056583 155.65652074 51.24449746 145.73557382 47.68823242 135.81469727 C46.50121547 132.50339067 45.31410071 129.19211914 44.12695312 125.88085938 C40.55450792 115.91629458 36.98240556 105.95160758 33.41212463 95.98626709 C32.21475253 92.64427663 31.01718213 89.30235728 29.81958008 85.96044922 C28.24450888 81.56518807 26.67023547 77.16964228 25.09643555 72.77392578 C21.02066402 61.39481474 16.92544546 50.02305793 12.8046875 38.66015625 C11.54632589 35.18492955 10.28827826 31.70958933 9.03030396 28.23422241 C7.83480506 24.93652687 6.63413612 21.64074379 5.43334961 18.3449707 C4.71181898 16.35246966 3.99053228 14.35988025 3.26953125 12.3671875 C2.93617767 11.45739639 2.6028241 10.54760529 2.2593689 9.61024475 C1.95955109 8.77835129 1.65973328 7.94645782 1.35083008 7.08935547 C0.95713982 6.00676956 0.95713982 6.00676956 0.55549622 4.90231323 C0 3 0 3 0 0 Z " fill="#1A1A26" transform="translate(1901,88)"/>
<path d="M0 0 C2.2109375 1.6875 2.2109375 1.6875 4.375 4 C5.15617188 4.82628906 5.93734375 5.65257813 6.7421875 6.50390625 C9.2530288 9.27973253 11.74880031 12.06283925 14.1875 14.90234375 C16.25850341 17.29917312 18.37603218 19.65000182 20.5 22 C23.76390848 25.61676345 26.98790949 29.26389608 30.1875 32.9375 C32.27211164 35.30964429 34.38428644 37.65556065 36.5 40 C39.18983431 42.98062721 41.86310364 45.97245233 44.5 49 C48.61081039 53.71701284 52.80667845 58.35638889 57 63 C61.76786975 68.27985576 66.51512218 73.57291806 71.1875 78.9375 C73.27211164 81.30964429 75.38428644 83.65556065 77.5 86 C80.76390848 89.61676345 83.98790949 93.26389608 87.1875 96.9375 C89.27211164 99.30964429 91.38428644 101.65556065 93.5 104 C96.76022255 107.61267904 99.98143565 111.25488991 103.17578125 114.92578125 C106.04263202 118.18551949 108.96588484 121.39410784 111.88671875 124.60546875 C112.58410156 125.39566406 113.28148437 126.18585938 114 127 C115.12341797 128.16982422 115.12341797 128.16982422 116.26953125 129.36328125 C118.60428141 132.92074482 118.69679755 134.81466049 118 139 C116.45616287 141.4752733 114.52171392 143.40997423 112.4375 145.4375 C111.32482789 146.57744905 110.21284491 147.71807116 109.1015625 148.859375 C108.56305664 149.40142578 108.02455078 149.94347656 107.46972656 150.50195312 C105.67288138 152.3334219 103.98266435 154.24029417 102.3125 156.1875 C99.79297735 159.10355769 97.21978018 161.96315447 94.625 164.8125 C91.57141133 168.18940982 88.65570795 171.63217132 85.8125 175.1875 C81.50464496 180.52139407 76.86140135 185.47515486 72.15356445 190.4519043 C68.78588086 194.03038044 65.56654594 197.65537524 62.5 201.5 C58.87289072 206.04742059 54.99400084 210.27798167 51 214.5 C46.21104408 219.56264675 41.69833775 224.73117048 37.34765625 230.1796875 C33.4274265 234.88918148 29.19880954 239.30970509 25.0078125 243.77734375 C22.16025299 246.81526691 19.3994777 249.91752087 16.6796875 253.0703125 C13.85837516 256.3115411 10.96075844 259.48383198 8.0625 262.65625 C6.3618835 264.58876875 4.87139273 266.53792593 3.375 268.625 C1 271 1 271 -2.625 271.5625 C-6.17179158 270.97136807 -6.92296774 270.76061221 -9 268 C-9.37719816 265.93923146 -9.37719816 265.93923146 -9.38031673 263.51904392 C-9.39297665 262.13435975 -9.39297665 262.13435975 -9.40589231 260.72170216 C-9.39988227 259.70595881 -9.39387222 258.69021546 -9.38768005 257.64369202 C-9.39306559 256.56589318 -9.39845113 255.48809435 -9.40399987 254.37763494 C-9.41836519 250.74781731 -9.41115449 247.11835997 -9.40405273 243.48852539 C-9.4097518 240.89361781 -9.41671425 238.29871273 -9.42485046 235.70381165 C-9.44206917 229.37616651 -9.44287213 223.04862055 -9.43763756 216.72095806 C-9.43360026 211.57898597 -9.43503417 206.43704324 -9.44038582 201.29507256 C-9.44113424 200.56393855 -9.44188266 199.83280454 -9.44265376 199.07951496 C-9.4441852 197.59433448 -9.44572355 196.10915401 -9.44726873 194.62397354 C-9.46100493 180.6880526 -9.45554828 166.75218775 -9.44408352 152.81626808 C-9.43415033 140.06064856 -9.44709126 127.30517409 -9.47101771 114.54957695 C-9.49538722 101.45938389 -9.50502186 88.36925844 -9.49836498 75.27904314 C-9.49486792 67.92696855 -9.4971368 60.57500555 -9.51461601 53.22294807 C-9.53084458 46.31104593 -9.52618984 39.39942589 -9.50731087 32.48753166 C-9.50360994 29.94620697 -9.50677684 27.40486193 -9.51719666 24.86355591 C-9.53030505 21.40314288 -9.51894845 17.9436636 -9.50120544 14.48329163 C-9.51081045 13.469779 -9.52041546 12.45626638 -9.53031152 11.41204125 C-9.45852885 4.64115835 -9.45852885 4.64115835 -7.12345982 1.37604427 C-4.4259974 -0.37196512 -3.15593244 -0.62532407 0 0 Z " fill="#0C6DFD" transform="translate(712,65)"/>
<path d="M0 0 C86.13 0 172.26 0 261 0 C257.62485468 11.25048438 257.62485468 11.25048438 255.55834961 16.79931641 C255.33283259 17.40748672 255.10731558 18.01565702 254.87496471 18.64225674 C254.13708692 20.62982082 253.39476869 22.61569297 252.65234375 24.6015625 C252.12301909 26.0244337 251.59396271 27.44740473 251.06515503 28.87046814 C249.65274154 32.66885107 248.23636898 36.46574583 246.81909561 40.26231766 C245.6327334 43.4417766 244.44864313 46.62207957 243.26457119 49.80239201 C239.51600308 59.87061137 235.75943673 69.93583471 232 80 C231.32342346 81.81162628 231.32342346 81.81162628 230.63317871 83.65985107 C226.28310455 95.30595186 221.91949816 106.94688621 217.53996277 118.5819397 C215.10361849 125.05703314 212.67617028 131.53540546 210.2532568 138.01553249 C208.12790896 143.69926499 205.99856998 149.38149293 203.86672306 155.06279087 C202.55784522 158.55142265 201.25085677 162.04073608 199.94839478 165.5317688 C198.50278621 169.40623642 197.04862134 173.27743855 195.59375 177.1484375 C195.15818283 178.31985794 194.72261566 179.49127838 194.27384949 180.69819641 C193.8708815 181.76636093 193.46791351 182.83452545 193.05273438 183.93505859 C192.52794495 185.33671768 192.52794495 185.33671768 191.99255371 186.76669312 C191 189 191 189 189 191 C183.40307102 185.58032749 177.83359094 180.1335727 172.2824707 174.66699219 C170.39027099 172.81002867 168.49184117 170.95939165 166.5871582 169.11523438 C163.85272158 166.46555888 161.14138799 163.79404999 158.43359375 161.1171875 C157.57535507 160.29507782 156.71711639 159.47296814 155.83287048 158.62594604 C155.05198563 157.8455899 154.27110077 157.06523376 153.46655273 156.26123047 C152.77150131 155.58172333 152.07644989 154.90221619 151.3603363 154.20211792 C150 152 150 152 150.21002197 148.95317078 C151.16260525 145.39213364 152.35602842 141.96458158 153.67578125 138.52734375 C154.09199486 137.4231031 154.09199486 137.4231031 154.51661682 136.29655457 C155.44338753 133.84153818 156.37793079 131.38955715 157.3125 128.9375 C157.96877958 127.20380923 158.62452843 125.46991747 159.27978516 123.73583984 C160.71755816 119.93306965 162.15844284 116.13149603 163.60107422 112.33056641 C166.21573706 105.43699333 168.81327246 98.53700505 171.41015625 91.63671875 C173.23153042 86.79938861 175.05323569 81.96218322 176.875 77.125 C177.32259674 75.9362326 177.77019348 74.74746521 178.23135376 73.52267456 C179.50465499 70.1422881 180.77944679 66.76246769 182.0546875 63.3828125 C182.43943741 62.36068161 182.82418732 61.33855072 183.22059631 60.28544617 C183.57302902 59.35223038 183.92546173 58.41901459 184.28857422 57.45751953 C184.59640839 56.64106964 184.90424255 55.82461975 185.22140503 54.98342896 C186 53 186 53 187 51 C186.32934383 51.04055889 185.65868767 51.08111778 184.96770859 51.12290573 C168.41647423 52.1076626 151.87480148 52.8285447 135.30083847 53.27973557 C127.28273276 53.50395658 119.28465597 53.80838367 111.27929688 54.31933594 C54.23811016 57.88881197 54.23811016 57.88881197 34.87304688 41.25585938 C21.28422124 29.22782697 10.50066363 14.70092908 0 0 Z " fill="#0C6DFC" transform="translate(2048,4)"/>
</svg>
