<?xml version="1.0" encoding="UTF-8"?>
<svg id="Layer_2" data-name="Layer 2" xmlns="http://www.w3.org/2000/svg" xmlns:xlink="http://www.w3.org/1999/xlink" viewBox="0 0 582.64 582.64">
  <defs>
    <style>
      .cls-1 {
        fill: url(#linear-gradient);
      }

      .cls-2 {
        fill: #91b3fa;
      }

      .cls-3 {
        fill: #7d97f4;
      }

      .cls-4 {
        fill: url(#linear-gradient-8);
      }

      .cls-5 {
        fill: url(#linear-gradient-3);
      }

      .cls-6 {
        fill: url(#linear-gradient-4);
      }

      .cls-7 {
        fill: url(#linear-gradient-2);
      }

      .cls-8 {
        fill: url(#linear-gradient-6);
      }

      .cls-9 {
        fill: url(#linear-gradient-7);
      }

      .cls-10 {
        fill: url(#linear-gradient-5);
      }
    </style>
    <linearGradient id="linear-gradient" x1="47.15" y1="406.69" x2="216.84" y2="406.69" gradientTransform="translate(-123.54 298.25) rotate(-45)" gradientUnits="userSpaceOnUse">
      <stop offset="0" stop-color="#09005d"/>
      <stop offset="1" stop-color="#1a0f91"/>
    </linearGradient>
    <linearGradient id="linear-gradient-2" x1="-2852.66" x2="-2682.98" gradientTransform="translate(-1752.23 1926.94) rotate(135) scale(1 -1)" xlink:href="#linear-gradient"/>
    <linearGradient id="linear-gradient-3" x1="116.07" y1="134.55" x2="139.13" y2="134.55" xlink:href="#linear-gradient"/>
    <linearGradient id="linear-gradient-4" x1="116.07" y1="195.66" x2="139.13" y2="195.66" xlink:href="#linear-gradient"/>
    <linearGradient id="linear-gradient-5" x1="242.91" y1="163.43" x2="353.6" y2="163.43" xlink:href="#linear-gradient"/>
    <linearGradient id="linear-gradient-6" x1="174.09" y1="657.59" x2="370.09" y2="21.59" gradientTransform="translate(-123.54 298.25) rotate(-45)" gradientUnits="userSpaceOnUse">
      <stop offset="0" stop-color="#4042e2"/>
      <stop offset="1" stop-color="#4f52ff"/>
    </linearGradient>
    <linearGradient id="linear-gradient-7" x1="294.02" y1="-42.23" x2="303.01" y2="289.17" gradientTransform="translate(-130.43 54.03)" gradientUnits="userSpaceOnUse">
      <stop offset="0" stop-color="#e1473d"/>
      <stop offset="1" stop-color="#e9605a"/>
    </linearGradient>
    <linearGradient id="linear-gradient-8" x1="293.11" y1="-32.21" x2="301.59" y2="280.37" gradientTransform="translate(-129.28 54.5)" gradientUnits="userSpaceOnUse">
      <stop offset="0" stop-color="#fe7062"/>
      <stop offset="1" stop-color="#ff928e"/>
    </linearGradient>
  </defs>
  <g id="Illustration">
    <g>
      <g>
        <g>
          <path class="cls-3" d="M7.18,208.24c-11.69,21.27-8.9,47.03,6.94,64.15l109.62,118.4,73.24-26.01L25.85,174.28,7.18,208.24Z"/>
          <path class="cls-1" d="M144.71,378.8l-17.24-2.29c-3.48-.46-7.04,.72-9.66,3.2-2.62,2.48-4,5.98-3.74,9.49l5.11,69.16c1.16,15.65,9.94,29.41,23.49,36.86,53.67,29.5,191.45,101.33,232.9,85.05,51.87-20.36,67.97-21.6,67.97-21.6L144.71,378.8Z"/>
        </g>
        <g>
          <path class="cls-3" d="M208.24,7.18c21.27-11.69,47.03-8.9,64.15,6.94l118.4,109.62-26.01,73.24L174.28,25.85,208.24,7.18Z"/>
          <path class="cls-7" d="M378.8,144.71l-2.29-17.24c-.46-3.48,.72-7.04,3.2-9.66,2.48-2.62,5.98-4,9.49-3.74l69.16,5.11c15.65,1.16,29.41,9.94,36.86,23.49,29.5,53.67,101.33,191.45,85.05,232.9-20.36,51.87-21.6,67.97-21.6,67.97L378.8,144.71Z"/>
        </g>
      </g>
      <g>
        <path class="cls-5" d="M41.38,284.48c-3.85,3.85-4.56,9.97-.2,14.34l25.04,25.04c4.36,4.36,10.44,3.62,14.3-.24l9.04-9.04-39.14-39.14-9.04,9.04Z"/>
        <path class="cls-6" d="M83.77,326.88c-3.85,3.85-3.82,10.72,.54,15.08l25.04,25.04c4.36,4.36,11.33,4.5,15.18,.65l9.04-9.04-40.77-40.77-9.04,9.04Z"/>
      </g>
      <path class="cls-10" d="M93.88,68.21c-6.47,10.39-15.3,19.22-25.69,25.69l-32.37,20.18,255.93,255.93,78.27-78.27L114.08,35.81l-20.21,32.4Z"/>
      <path class="cls-8" d="M362.87,128.58c45.75,47.21,101.62,111.37,168.12,198.39,6.42,8.38,11.19,18.03,14,28.27l27.64,100.78c3.66,13.4-.22,27.95-10.21,37.94l-68.62,68.62c-10,10-24.54,13.87-37.93,10.2l-100.67-27.53c-10.23-2.8-19.26-8.32-27.65-14.72-87.16-66.62-151.28-122.72-197.8-169.24l-.67-.67c-3.55-.29-4.67-2.96-6.62-4.77l-19.05-18.53c-2.38-2.52-4.39-5.31-6.69-7.72-4.95-5.17-9.25-10.59-13.9-15.24l-.05-.05C37.75,266.03,16.42,233.71,6.87,215.92c-5.04-9.4-6.14-20.32-2.55-30.56l27.78-79.71c.89-2.55,2.98-4.44,5.61-5.07,2.62-.63,5.32,.18,7.18,2.08l181.04,183.99,36.79,37.41,1.44,1.46c3.29,3.34,8.01,4.91,12.74,4.23l34.9-5.05c6.8-.98,12.19-6.4,13.15-13.2l4.9-34.7c.67-4.71-.91-9.4-4.25-12.68l-1.34-1.32-6.23-6.12L102.64,44.92c-1.9-1.86-2.66-4.59-2.03-7.23,.63-2.62,2.57-4.76,5.12-5.65L185.5,4.17c10.24-3.59,21.4-2.72,30.78,2.33,17.82,9.57,50.49,30.7,99.16,75.64,14.41,13.3,30.2,28.67,47.42,46.44Z"/>
      <rect class="cls-9" x="142.45" y="66.35" width="50.73" height="202.93" rx="25.04" ry="25.04" transform="translate(-69.51 167.82) rotate(-45)"/>
      <rect class="cls-4" x="143.61" y="73.75" width="48.43" height="191.4" rx="23.75" ry="23.75" transform="translate(-70.67 168.3) rotate(-45)"/>
      <g>
        <circle class="cls-3" cx="388.37" cy="388.51" r="40.86" transform="translate(-119.12 178.2) rotate(-22.5)"/>
        <circle class="cls-2" cx="388.79" cy="388.1" r="35.18" transform="translate(-149.43 278.12) rotate(-33.4)"/>
      </g>
      <g>
        <circle class="cls-3" cx="458.71" cy="458.86" r="29.02"/>
        <circle class="cls-2" cx="459.01" cy="458.56" r="24.98"/>
      </g>
      <g>
        <path class="cls-2" d="M206.55,265.25l57.66,57.66-.39,.06-134.06,38.33-.67-.67c-3.55-.29-4.67-2.96-6.62-4.77l-19.05-18.53c-2.38-2.52-4.85-4.85-7.16-7.26-4.95-5.17-9.31-10.54-13.77-15.37l124.06-49.45Z"/>
        <path class="cls-2" d="M362.87,128.58l-38.46,134.07,.13-.07-57.66-57.66,48.72-122.93c14.41,13.3,30.04,28.82,47.27,46.59Z"/>
      </g>
    </g>
  </g>
</svg>