<?xml version="1.0" encoding="UTF-8"?>
<svg id="Layer_2" data-name="Layer 2" xmlns="http://www.w3.org/2000/svg" viewBox="0 0 70.77 43.41">
  <defs>
    <style>
      .cls-1 {
        fill: #12661a;
        stroke-width: 0px;
      }
    </style>
  </defs>
  <g id="Layer_1-2" data-name="Layer 1">
    <g>
      <path class="cls-1" d="m20.4,24.26c-.34,0-.58-.2-.65-.54-.08-.43.27-.62.43-.7.03-.02.07-.04.1-.06,1.36-.94,3.23-2.22,5.17-3.56,2.56-1.76,5.23-3.59,7.02-4.83.12-.08.22-.16.31-.23,0,0,0,0,0,0-.31-1.76-.36-4.93-.21-5.94-.14-.3-.63-1.35-1.54-3.02-.4-.73-.68-1.43-.96-2.1-.22-.54-.45-1.11-.74-1.69-.06-.12-.06-.26.01-.38.31-.56,2.76-1.09,3.3-1.14.43-.05.78-.08,1.04-.08.85,0,1.07.39,1.14,1.24.38-.34.84-.51,1.38-.51.4,0,.83.09,1.32.28.29.11.61.26.68.56.08.32-.17.6-.35.81-.73.83-3.18,3.69-3.8,5.66-.01.04-.03.07-.05.1-.27.35-.7,2.61-.13,5.92,2.97.53,6.74.87,10.38,1.2,2.27.2,4.42.4,6.27.63.16.02.25.12.32.18.01.01.03.03.04.04.08.06.12.15.12.25,0,.6-.49.74-.73.81l-.08.03c-1.67.53-3.28,1.17-4.92,1.94l-.44.21c-2.11,1.02-4.35,2.31-7.29,4.17-.38.24-.71.35-1.09.35h0c-.09,0-.18,0-.28-.02-1.22-.15-3.62-.24-6.26-.24-.49,0-.99,0-1.49,0h-.43c-3.34.06-5.98.27-7.24.57-.11.03-.23.05-.36.05Zm12.7-8.72c-1.47,1.1-3.21,2.28-5.06,3.53-1.79,1.21-3.62,2.46-5.28,3.67.54-.03,1.07-.07,1.6-.11.91-.07,1.77-.14,2.58-.15h.39c1.01-.02,1.95-.04,2.92-.04,1.78,0,3.37.05,5.15.17.29.02.51.05.68.07.15.02.26.03.35.03.18,0,.34-.05.82-.36,2.76-1.77,6.76-4.1,10.83-5.63-.76-.08-1.51-.13-2.24-.18-1.11-.08-2.15-.15-3.12-.3-1.32-.21-3.4-.39-5.41-.58-1.16-.11-2.27-.21-3.16-.3.02.05.03.1.05.15.24.77.46,1.49.86,2.15.12.05.21.14.27.26.06.13.07.29.01.43-.05.13-.16.24-.29.28-.13.05-.25.07-.37.07-.22,0-.41-.08-.55-.23-.1-.1-.14-.24-.14-.38,0-.05.01-.09.02-.13-.37-.66-.59-1.38-.8-2.08-.03-.11-.07-.23-.1-.34Zm-2.3-13.78s0,.05.03.17c.28,1.09.79,2.06,1.33,3.08.26.49.52.99.76,1.51l.06.14c.06.14.16.36.25.51.71-1.67,2.29-4.13,3.57-5.23-.09-.02-.21-.04-.38-.07-.11-.02-.21-.03-.27-.03-.05,0-.06,0-.28.22-.08.08-.28.27-.5.48-.27.26-.61.57-.71.68-.06.07-.15.1-.24.1-.05,0-.1-.01-.15-.04-.44-.22-.53-.98-.59-1.73,0-.07-.01-.13-.01-.18-.01-.11-.01-.19,0-.26-.14-.01-.38-.02-.51-.02-.14.04-.3.08-.46.12-.48.12-1.03.26-1.57.43-.1.03-.27.09-.31.12Z"/>
      <path class="cls-1" d="m50.82,16.31c-4.98-.62-12.27-1-17.21-1.9-.01,0-.03,0-.04,0-.63-3.45-.24-6.03.16-6.54.66-2.12,3.27-5.13,3.95-5.9.4-.45.44-.62-.2-.87-1.08-.42-2.23-.48-2.93.84q-.08-1.97-1.92-1.77c-.93.1-3.28.76-3.12,1.07.67,1.35,1,2.52,1.73,3.86,1.13,2.07,1.63,3.2,1.63,3.2-.17.88-.13,4.47.23,6.24,0,0,0,.01,0,.02-.12.09-.28.22-.49.37-3.21,2.22-9.24,6.35-12.45,8.57-.17.12-.45.17-.4.43.07.36.4.28.62.23,1.48-.35,4.44-.53,7.46-.59h.44c3.23-.05,6.45.05,7.96.23.47.06.8-.04,1.18-.29,2.75-1.74,5.13-3.14,7.48-4.28l.45-.22c1.66-.79,3.31-1.44,5.07-2,.26-.08.6-.13.6-.54-.07-.06-.13-.14-.2-.15Zm-18.26-9.77c-.73-1.59-1.71-3.03-2.15-4.74-.13-.49.1-.57.51-.7.77-.24,1.57-.42,2.14-.57,1.13,0,.85.07.9.59.04.32.06,1.5.44,1.69.19-.2,1.06-1,1.24-1.18.35-.35.36-.36.85-.29.82.12.92.23.74.51-1.32,1.03-3.04,3.71-3.74,5.4-.31.75-.64-.09-.92-.7Zm4.91,16.32c-.97.62-.92.39-2.09.31-3.46-.23-5.73-.18-8.61-.13-1.63.02-3.48.27-5.34.32,3.7-2.81,8.56-5.82,11.79-8.28.35,1.02.58,2.09,1.14,3.02,0,0,0,0,0,0-.08.07-.1.21-.02.29.16.17.38.16.59.08.1-.04.14-.18.1-.27-.04-.09-.14-.13-.23-.11,0-.04,0-.08-.03-.12-.55-.89-.79-1.92-1.12-2.91,2.34.29,6.95.6,9.27.96,2.02.31,4.43.29,6.87.66-4.37,1.45-8.99,4.05-12.32,6.19Z"/>
      <path class="cls-1" d="m.77,43.41c-.23,0-.41-.07-.56-.21-.14-.14-.21-.31-.21-.51V12.9c0-.26.08-.45.24-.58.16-.13.33-.19.53-.19h6.42c1.65,0,3.14.18,4.47.53,1.33.36,2.37,1.05,3.15,2.08.77,1.03,1.16,2.54,1.16,4.54,0,1.83-.34,3.36-1.01,4.6-.67,1.24-1.55,2.1-2.63,2.59.88.37,1.65.86,2.31,1.48.66.61,1.17,1.41,1.54,2.37.37.97.56,2.2.56,3.68v.73c0,2.14-.37,3.84-1.11,5.11-.74,1.27-1.75,2.18-3.02,2.74-1.27.56-2.69.83-4.26.83H.77Zm.77-17.71h5.95c2.37,0,4.11-.45,5.24-1.35,1.13-.9,1.69-2.59,1.69-5.07,0-1.6-.31-2.8-.92-3.59-.61-.8-1.45-1.33-2.52-1.6-1.07-.27-2.3-.41-3.7-.41H1.54v12.02Zm0,16.17h6.8c2.14,0,3.81-.57,5.03-1.71,1.21-1.14,1.82-2.95,1.82-5.43v-.73c0-2.48-.61-4.23-1.82-5.24-1.21-1.01-2.89-1.52-5.03-1.52H1.54v14.63Z"/>
      <path class="cls-1" d="m51.02,42.64c0,.23-.07.41-.21.56-.14.14-.31.21-.51.21h-29.82c-.2,0-.37-.07-.51-.21-.14-.14-.21-.33-.21-.56v-7.57c0-1.57.29-2.99.88-4.26.58-1.27,1.52-2.27,2.8-3.02,1.28-.74,3-1.11,5.13-1.11h13.65c2.14,0,3.85.37,5.13,1.11,1.28.74,2.22,1.75,2.8,3.02.58,1.27.88,2.69.88,4.26v7.57Zm-1.54-.77v-6.8c0-2.14-.59-3.81-1.78-5.03-1.18-1.21-3.02-1.82-5.5-1.82h-13.65c-2.48,0-4.31.61-5.5,1.82-1.18,1.21-1.78,2.89-1.78,5.03v6.8h28.2Z"/>
      <path class="cls-1" d="m62.38,43.41c-1.57,0-2.98-.29-4.24-.88-1.26-.58-2.25-1.52-3-2.8-.74-1.28-1.11-3-1.11-5.13V12.6c0-.26.08-.44.24-.56.16-.11.34-.17.53-.17s.38.06.53.17c.16.11.24.3.24.56v21.99c0,2.48.6,4.32,1.8,5.5,1.2,1.18,2.87,1.78,5.01,1.78s3.82-.59,5.03-1.78c1.21-1.18,1.82-3.02,1.82-5.5V12.6c0-.26.08-.44.24-.56.16-.11.34-.17.53-.17s.38.06.53.17c.16.11.24.3.24.56v21.99c0,2.14-.37,3.85-1.11,5.13-.74,1.28-1.75,2.22-3.02,2.8-1.27.59-2.69.88-4.26.88Z"/>
    </g>
  </g>
</svg>