<?xml version="1.0" encoding="UTF-8"?>
<svg id="Layer_2" data-name="Layer 2" xmlns="http://www.w3.org/2000/svg" viewBox="0 0 470.67 91.61">
  <defs>
    <style>
      .cls-1 {
        fill: #1d1d1b;
        stroke-width: 0px;
      }
    </style>
  </defs>
  <g id="Layer_1-2" data-name="Layer 1">
    <g>
      <g>
        <path class="cls-1" d="m215,9.62l-1.36,7.75h-20.84l-11.63,66.09h-9.53l11.63-66.09h-60.87l1.26-7.75h91.34Z"/>
        <path class="cls-1" d="m265.01,14.23c3.6,3.07,5.4,7.26,5.4,12.56,0,1.75-.14,3.35-.42,4.82-.98,5.94-3.49,10.76-7.54,14.45-4.05,3.7-9.32,6.01-15.82,6.92l14.77,30.48h-10.79l-14.03-30.16h-10.26l-5.34,30.16h-9.53l12.99-73.84h24.3c7.26,0,12.69,1.53,16.28,4.61Zm-4.45,14.45c0-7.19-4.68-10.79-14.03-10.79h-13.93l-5.03,28.49h13.93c10.75,0,17-4.75,18.75-14.24.21-1.26.32-2.41.32-3.46Z"/>
        <path class="cls-1" d="m318.9,66.39h-32.47l-9.22,17.07h-10.16l39.9-72.48h10.89l14.45,72.48h-10.26l-3.14-17.07Zm-1.36-7.44l-6.91-37.39-20.22,37.39h27.13Z"/>
        <path class="cls-1" d="m402.59,66.02c-3.98,5.55-9.15,9.84-15.5,12.88-6.35,3.04-13.61,4.55-21.78,4.55h-23.46l12.99-73.84h23.46c10.68,0,18.85,2.49,24.51,7.49,5.65,4.99,8.48,11.95,8.48,20.89,0,2.93-.25,5.76-.73,8.49-1.33,7.47-3.98,13.98-7.96,19.53Zm-13.04,1.36c5.97-4.99,9.72-11.95,11.26-20.89.42-2.45.63-4.75.63-6.92,0-6.91-2.15-12.24-6.44-15.97-4.29-3.73-10.6-5.61-18.9-5.61h-13.2l-10.05,56.87h13.19c9.71,0,17.54-2.49,23.51-7.49Z"/>
        <path class="cls-1" d="m438.09,17.37l-4.4,25.24h28.07l-1.36,7.33h-28.07l-4.5,25.76h31.2l-1.36,7.75h-40.74l12.99-73.84h40.74l-1.36,7.75h-31.21Z"/>
      </g>
      <g>
        <path class="cls-1" d="m11.07,32.85c-1.6,0-3.09-.34-4.45-1.02-1.36-.68-2.53-1.58-3.51-2.69-.98-1.11-1.74-2.38-2.29-3.8-.55-1.42-.82-2.87-.82-4.36,0-1.57.26-3.07.78-4.51.52-1.44,1.25-2.71,2.2-3.82.95-1.11,2.08-2,3.4-2.67s2.78-1,4.38-1c1,0,1.96.15,2.84.45s1.71.69,2.49,1.2,1.48,1.1,2.13,1.78,1.25,1.41,1.78,2.18v-5.25h1.43v23.83c0,1.57-.3,2.92-.87,4.06-.58,1.14-1.35,2.1-2.31,2.87-.96.77-2.08,1.34-3.35,1.71s-2.61.56-4,.56-2.57-.14-3.62-.4c-1.05-.27-1.97-.64-2.78-1.11-.8-.47-1.5-1.05-2.11-1.71-.61-.67-1.14-1.4-1.58-2.2l1.11-.62c.95,1.66,2.22,2.86,3.82,3.6,1.6.74,3.32,1.11,5.16,1.11,1.24,0,2.41-.16,3.49-.49,1.08-.33,2.04-.82,2.87-1.49.83-.67,1.48-1.49,1.95-2.47.48-.98.71-2.12.71-3.42v-5.43c-.47.77-1.05,1.47-1.71,2.09-.67.62-1.39,1.16-2.16,1.6-.77.45-1.58.8-2.42,1.05-.85.25-1.7.38-2.56.38Zm.22-1.38c1.04,0,2.05-.2,3.05-.6.99-.4,1.89-.92,2.68-1.56.8-.64,1.46-1.35,1.98-2.13.52-.78.83-1.58.91-2.38v-7.95c-.36-.92-.85-1.78-1.49-2.58-.64-.8-1.36-1.48-2.15-2.05-.8-.56-1.66-1-2.58-1.33-.93-.33-1.86-.49-2.81-.49-1.48,0-2.8.31-3.96.93-1.15.62-2.13,1.44-2.93,2.45-.8,1-1.41,2.14-1.83,3.4-.42,1.26-.62,2.53-.62,3.8,0,1.4.25,2.72.76,3.98.5,1.26,1.19,2.37,2.06,3.34.88.96,1.9,1.73,3.09,2.31,1.18.58,2.46.87,3.82.87Z"/>
        <path class="cls-1" d="m28.89,0h1.46v28.5c0,.86.27,1.54.8,2.04s1.23.75,2.09.75c.32,0,.71-.04,1.18-.11.45-.08.88-.19,1.27-.33l.36,1.24c-.45.15-1,.28-1.67.4s-1.24.18-1.71.18c-1.12,0-2.03-.35-2.73-1.05-.7-.69-1.05-1.64-1.05-2.82V0Z"/>
        <path class="cls-1" d="m49.12,32.89c-1.58,0-3.03-.32-4.38-.96s-2.53-1.49-3.53-2.58c-1.01-1.08-1.79-2.35-2.36-3.8-.56-1.45-.84-2.98-.84-4.58s.29-3.17.86-4.62c.58-1.45,1.37-2.73,2.38-3.83,1.01-1.1,2.18-1.96,3.53-2.6,1.35-.63,2.79-.96,4.34-.96s2.99.32,4.35.96c1.36.64,2.55,1.51,3.56,2.6,1.01,1.1,1.8,2.37,2.38,3.83.58,1.45.86,2.99.86,4.62s-.29,3.13-.86,4.58c-.58,1.45-1.36,2.72-2.36,3.8-.99,1.08-2.17,1.94-3.53,2.58-1.36.64-2.83.96-4.4.96Zm-9.61-11.87c0,1.42.25,2.77.76,4.05.5,1.27,1.18,2.38,2.05,3.33.86.95,1.87,1.7,3.04,2.24,1.17.55,2.41.82,3.72.82s2.59-.28,3.75-.85c1.17-.56,2.19-1.32,3.07-2.27.87-.95,1.56-2.07,2.06-3.36.51-1.29.76-2.64.76-4.07s-.25-2.78-.76-4.06c-.5-1.29-1.19-2.41-2.06-3.36-.88-.95-1.9-1.7-3.07-2.27-1.17-.56-2.41-.84-3.71-.84s-2.54.28-3.69.84c-1.15.56-2.17,1.33-3.05,2.29-.87.96-1.57,2.09-2.09,3.38-.52,1.29-.78,2.66-.78,4.11Z"/>
        <path class="cls-1" d="m76.19,32.89c-1.84,0-3.56-.49-5.16-1.47-1.6-.98-2.86-2.21-3.78-3.69v4.71h-1.42V0h1.51v14.58c1.13-1.66,2.46-3.01,3.98-4.05,1.52-1.04,3.28-1.56,5.27-1.56,1.68,0,3.19.36,4.51,1.07,1.31.71,2.43,1.63,3.33,2.76s1.6,2.41,2.09,3.84c.49,1.44.73,2.88.73,4.33,0,1.57-.28,3.07-.84,4.51-.56,1.44-1.35,2.7-2.36,3.8-1.01,1.1-2.18,1.97-3.53,2.62-1.35.65-2.79.98-4.33.98Zm-.23-1.42c1.43,0,2.74-.3,3.94-.91,1.21-.61,2.23-1.4,3.09-2.38.86-.98,1.53-2.09,2.02-3.36.49-1.26.74-2.54.74-3.84s-.23-2.68-.69-3.95c-.45-1.27-1.09-2.4-1.91-3.38-.81-.98-1.8-1.76-2.96-2.36-1.15-.59-2.43-.89-3.82-.89-1.04,0-2.02.18-2.93.53-.92.36-1.75.83-2.51,1.42-.76.6-1.44,1.28-2.05,2.05-.61.77-1.11,1.58-1.53,2.45v8.05c.09.89.42,1.73,1,2.53.58.8,1.29,1.51,2.13,2.11.85.61,1.76,1.08,2.74,1.42s1.9.51,2.75.51Z"/>
        <path class="cls-1" d="m98.41,32.89c-1.06,0-2.05-.19-2.97-.55-.92-.37-1.72-.88-2.4-1.51-.68-.64-1.21-1.38-1.6-2.24s-.58-1.79-.58-2.8.24-1.87.71-2.69c.47-.82,1.13-1.52,1.98-2.11.84-.59,1.85-1.05,3.02-1.38,1.18-.33,2.46-.49,3.84-.49,1.3,0,2.62.1,3.94.31,1.32.2,2.51.52,3.58.93v-2.49c0-2.31-.66-4.16-1.98-5.53-1.32-1.38-3.09-2.07-5.31-2.07-1.13,0-2.33.25-3.6.74s-2.55,1.19-3.82,2.11l-.71-1.11c2.96-2.02,5.7-3.03,8.22-3.03,2.7,0,4.82.8,6.38,2.4,1.55,1.6,2.33,3.79,2.33,6.58v12.09c0,.65.27.98.8.98v1.42c-.09.03-.17.05-.24.05h-.2c-.5,0-.93-.19-1.27-.56-.34-.37-.51-.82-.51-1.35v-2.05c-1.07,1.4-2.45,2.47-4.13,3.22-1.69.76-3.52,1.13-5.47,1.13Zm.18-1.29c1.09,0,2.2-.15,3.31-.44,1.11-.3,2.11-.71,3-1.22.89-.52,1.62-1.12,2.18-1.8.56-.68.84-1.41.84-2.18v-4.36c-2.31-.89-4.77-1.33-7.38-1.33-1.21,0-2.33.14-3.34.4s-1.87.64-2.6,1.11-1.29,1.05-1.68,1.71c-.4.67-.61,1.42-.61,2.25s.17,1.6.49,2.31c.33.71.77,1.33,1.33,1.87.56.53,1.22.95,1.98,1.24.75.3,1.58.44,2.46.44Z"/>
        <path class="cls-1" d="m116.64,0h1.46v28.5c0,.86.27,1.54.8,2.04.53.5,1.23.75,2.09.75.32,0,.71-.04,1.18-.11.45-.08.88-.19,1.27-.33l.36,1.24c-.45.15-1,.28-1.67.4s-1.24.18-1.71.18c-1.12,0-2.03-.35-2.73-1.05-.7-.69-1.05-1.64-1.05-2.82V0Z"/>
      </g>
      <g>
        <g>
          <path class="cls-1" d="m51.44,91.61c-15,0-27.2-12.2-27.2-27.2s12.2-27.2,27.2-27.2,27.19,12.2,27.19,27.2-12.2,27.2-27.19,27.2Zm0-48.85c-11.94,0-21.65,9.71-21.65,21.65s9.71,21.65,21.65,21.65,21.65-9.71,21.65-21.65-9.71-21.65-21.65-21.65Z"/>
          <g>
            <path class="cls-1" d="m34.8,75.23c-.09,0-.17-.02-.25-.07-.22-.14-.29-.43-.15-.65l5.59-8.94,5.43,4.96,6.48-9.9,5.11,4.96,7.21-9.71c.16-.21.45-.25.66-.1.21.16.25.45.1.66l-7.86,10.58-5.06-4.91-6.47,9.87-5.41-4.95-4.98,7.97c-.09.14-.24.22-.4.22Z"/>
            <circle class="cls-1" cx="40.09" cy="66.79" r="2.44"/>
            <path class="cls-1" d="m47.94,71.27c0,1.35-1.09,2.44-2.44,2.44s-2.44-1.09-2.44-2.44,1.09-2.44,2.44-2.44,2.44,1.09,2.44,2.44Z"/>
            <circle class="cls-1" cx="52.14" cy="61.08" r="2.44"/>
            <circle class="cls-1" cx="57.01" cy="66.4" r="2.44"/>
            <polygon class="cls-1" points="66.16 59.65 61.27 55.14 67.3 53.51 66.16 59.65"/>
          </g>
        </g>
        <g>
          <path class="cls-1" d="m21.49,44.84v3.2H3.98v15.1h15.16v3.09H3.98v18.19H0v-39.57h21.49Z"/>
          <path class="cls-1" d="m104.36,84.28l-10.8-16.45h-6.38v16.45h-3.97v-39.44h12.08c4.44,0,7.75,1.04,9.93,3.13,2.18,2.09,3.27,4.91,3.27,8.45,0,3.28-.92,5.89-2.77,7.83-1.85,1.94-4.53,3.1-8.03,3.47l11.14,16.56h-4.48Zm-17.18-19.41h7.84c6.34,0,9.51-2.74,9.51-8.22s-3.17-8.39-9.51-8.39h-7.84v16.62Z"/>
          <path class="cls-1" d="m118.77,48.04v14.93h15.44v3.09h-15.44v15.1h17.12v3.25h-21.1v-39.57h21.1v3.2h-17.12Z"/>
          <path class="cls-1" d="m163.99,84.28l-10.29-16.62-9.57,16.62h-4.53l11.92-20.08-12.03-19.36h4.64l10.13,16.28,9.57-16.28h4.53l-11.97,19.75,12.25,19.69h-4.64Z"/>
        </g>
      </g>
    </g>
  </g>
</svg>