<svg width="576" height="151" viewBox="0 0 576 151" fill="none" xmlns="http://www.w3.org/2000/svg">
<path d="M524.974 75.432L460.514 105.902L474.314 41.3943L524.974 75.432Z" fill="#FF1F1F"/>
<path d="M457.594 0.0185547L425.481 150.13L575.481 79.2273L457.594 0.0185547ZM465.951 20.7064L550.224 77.3284L442.994 128.016L465.951 20.7064Z" fill="#12395C"/>
<path d="M19.0838 33.6362C19.3575 33.6362 19.4999 33.8891 19.4999 34.4051V34.7895L18.6787 36.0338C19.2261 36.0945 19.4999 36.3575 19.4999 36.8026V42.5285C19.4999 43.1051 19.2261 43.3884 18.6787 43.3884H16.0947C12.6458 48.487 10.9268 55.2346 10.9268 63.6312V64.4911C10.9268 84.5416 21.5364 99.9488 42.7665 110.713C50.6936 113.899 58.1717 115.488 65.1901 115.488H66.9419C72.5916 115.488 400.481 114.243 400.481 114.243V122.65C400.481 123.985 77.2778 124.784 67.774 125.037H63.9528C46.3797 125.037 30.427 117.875 16.0947 103.55C5.68222 91.5725 0.481445 79.2205 0.481445 66.484V62.8522C0.481445 52.5437 3.24059 43.1152 8.74794 34.5872C8.74794 33.9498 9.05452 33.6362 9.67861 33.6362H19.0838ZM2.23329 63.2366V65.2397H2.64935V63.2366H2.23329ZM2.23329 66.0085V68.487H2.64935V66.0085H2.23329ZM2.23329 71.2589V73.2619C2.50701 73.7677 2.64935 74.1522 2.64935 74.4051H3.06541C2.79169 73.3833 2.64935 72.3413 2.64935 71.2488H2.23329V71.2589ZM8.33188 59.706V62.0935H8.74794V59.706H8.33188ZM8.33188 66.0085V68.8714H8.74794V66.0085H8.33188ZM9.16401 53.6868C9.16401 54.7693 9.02167 55.8517 8.74794 56.9342V57.3186H9.16401L9.58007 55.3155V53.6969H9.16401V53.6868ZM9.58007 51.6838V53.3024H9.99613V51.6838H9.58007ZM34.1715 114.709C34.1715 115.093 34.7518 115.477 35.9234 115.852H36.3394V115.467C35.8577 115.467 35.2664 115.214 34.5876 114.698H34.1715V114.709ZM50.0914 115.477V115.862L52.2593 116.246H52.6754V115.862L50.5074 115.477H50.0914ZM61.3579 117.48V117.865H65.1791V117.48H61.3579ZM67.358 117.48V117.865H71.2887V117.48H67.358Z" fill="#FF1F1F"/>
<path d="M29.8355 33.6362H49.8832C53.9452 37.7738 55.9818 43.1253 55.9818 49.6807C55.9818 59.6757 49.3029 67.0303 35.9341 71.7445L34.1823 72.1289V73.5654C42.6568 73.6969 50.5182 75.2245 57.7445 78.1481V34.3949C57.8102 33.8891 58.084 33.6261 58.5767 33.6261H64.6753C65.2994 33.6868 65.6059 33.9498 65.6059 34.3949V90.6418C65.6059 91.1476 65.2994 91.4005 64.6753 91.4005C64.6096 90.8947 62.157 89.2963 57.3394 86.6256V85.7657C56.3102 86.0186 55.719 86.1501 55.5876 86.1501C48.5583 83.2265 41.4305 81.7596 34.1932 81.7596C29.6494 82.0126 26.299 82.4273 24.1639 83.0039L23.7479 82.1441V63.7121C23.8902 63.1355 24.1968 62.8522 24.6786 62.8522H30.7771C37.3903 62.8522 42.3174 59.1294 45.5583 51.6838V48.9119C45.2846 45.1587 44.6933 43.2771 43.8065 43.2771H42.4597C42.4597 51.36 36.9414 56.8026 25.9267 59.6049L23.7588 59.9893L23.3428 59.2306V58.7551C23.3428 58.2493 23.7917 57.9862 24.6895 57.9862V57.6018C23.7917 57.6018 23.3428 57.3186 23.3428 56.7419V50.1562C29.4085 48.315 32.4414 45.3509 32.4414 41.2741C32.4414 38.7955 31.3027 36.3676 29.0253 34.0206L29.8574 33.6362H29.8355ZM31.5874 72.8775V73.353C31.6531 73.8588 31.9268 74.1117 32.4195 74.1117V73.7273C32.4195 73.1506 32.1458 72.8674 31.5874 72.8674V72.8775ZM32.4195 48.4364L32.0034 49.2963V49.6807H32.4195C32.4195 49.4278 32.5947 49.013 32.9341 48.4364H32.4195ZM33.7662 35.6392V36.0237H48.1313V35.6392H33.7662ZM35.9341 52.0682C35.9341 52.5133 35.6604 53.0596 35.113 53.6868V54.0712C35.529 54.0712 35.9341 53.5654 36.3502 52.5437V52.0682H35.9341ZM36.3502 80.5254V81.0009H39.8648V80.5254H36.3502ZM36.8648 68.8714V69.3469H37.2809C37.8283 69.0333 38.2444 68.8714 38.5181 68.8714V68.487H38.102C37.5546 68.7399 37.1385 68.8714 36.8648 68.8714ZM43.7846 65.2397C43.7846 65.8163 42.9196 66.3525 41.2006 66.8583V67.2427H42.0327C43.478 66.1602 44.2006 65.4926 44.2006 65.2397H43.7846ZM41.2006 76.1248V76.5093H43.7846V76.1248H41.2006ZM43.3795 59.2306C42.2079 60.4445 41.6276 61.1122 41.6276 61.2336H42.0437C43.2152 60.0904 43.7955 59.4228 43.7955 59.2306H43.3795ZM44.6167 76.5093V76.9847H46.3685V76.5093H44.6167ZM46.3685 63.2366C46.3685 63.3681 46.0948 63.7829 45.5364 64.4809H45.9525L46.7736 63.2366H46.3576H46.3685ZM48.1313 46.4334V49.2963H48.5474V46.4334H48.1313ZM48.1313 82.1441V82.5285L50.2992 83.0039H50.7153V82.5285L48.5474 82.1441H48.1313ZM48.5474 77.3691V77.7536L50.7153 78.138H51.2299V77.7536L48.9525 77.3691H48.5364H48.5474ZM50.2992 37.6423V38.0267C51.197 39.3621 51.646 40.2826 51.646 40.7986H52.062V40.4142C51.1642 39.0788 50.7153 38.1582 50.7153 37.6423H50.2992ZM51.2299 58.5528C51.2299 58.8057 51.0547 59.1901 50.7153 59.6959V60.1714H51.2299C51.2299 59.8578 51.3722 59.443 51.646 58.9271V58.5426H51.2299V58.5528ZM51.646 78.138V78.5224C51.7773 78.5224 52.3686 78.6843 53.3978 78.9979V78.138H51.646ZM52.8832 44.0459C53.2226 45.0677 53.3978 47.7384 53.3978 52.0682H53.8139C53.8139 50.5406 53.9452 49.62 54.2299 49.2963L53.3978 44.0459H52.8832ZM53.8139 78.9979V79.3823C54.3613 79.3823 55.3686 79.7667 56.8139 80.5254H57.3285V80.141C56.7044 80.141 55.6752 79.7566 54.2299 78.9979H53.8139ZM59.9125 71.7343V73.353H60.7446V71.7343H59.9125ZM60.3285 53.6868V55.3054H60.7446V53.6868H60.3285ZM66.8322 33.6362H67.2483C67.8724 33.6969 68.179 33.9599 68.179 34.4051V93.0394H67.7629C66.5913 92.6549 66.0111 92.2402 66.0111 91.795V86.1602H66.8322V83.0039H66.0111V34.3949C66.0767 33.8891 66.3505 33.6261 66.8322 33.6261V33.6362Z" fill="#FF1F1F"/>
<path d="M75.7229 33.6362H95.2559C96.3618 34.142 97.7742 35.9326 99.4932 38.9878C101.081 35.9326 102.318 34.1522 103.216 33.6362H127.304C127.851 33.6969 128.136 33.96 128.136 34.4051V93.0394H127.72C126.614 92.5336 126.066 92.2098 126.066 92.0884V43.3682H125.65V92.0682H125.234L117.997 87.4855V43.3682H105.493C104.869 43.3682 104.563 43.5907 104.563 44.0358V67.9104H103.741C103.325 67.9104 102.876 67.4956 102.395 66.6661V51.097L102.811 48.8006C102.537 48.8006 102.395 46.9898 102.395 43.358H101.979V66.2817H101.146C96.6683 63.8032 94.4238 62.397 94.4238 62.0834V43.3682H85.7412C85.0514 43.3682 84.712 43.5907 84.712 44.0358V85.2903H84.296C79.8178 83.0647 77.5733 81.5371 77.5733 80.7076V43.3682H77.1572V78.7956C76.5331 78.7956 76.2265 79.0485 76.2265 79.5543H75.8105C75.3944 79.5543 74.9893 79.1699 74.5732 78.4111V34.5872C74.5732 33.9498 74.9565 33.6362 75.7119 33.6362H75.7229ZM82.2375 69.8224V71.3499H82.6536V69.8224H82.2375ZM96.088 57.4096V61.6079H96.5041C96.5041 59.1294 96.6355 57.8547 96.9202 57.7839L96.088 57.3995V57.4096ZM120.581 73.3631V74.8907H120.997V73.3631H120.581ZM123.888 45.6646V48.052H124.304V45.6646H123.888Z" fill="#FF1F1F"/>
<path d="M135.362 25.0372C135.428 25.543 135.702 25.8061 136.195 25.8061C136.26 25.3003 136.534 25.0372 137.016 25.0372H141.253C141.8 25.0979 142.074 25.361 142.074 25.8061V99.2406C142.074 99.8172 141.8 100.1 141.253 100.1L134.53 96.0944V48.8207C133.019 46.4029 130.84 44.5921 128.016 43.3782C127.392 43.3782 127.085 43.1252 127.085 42.6093C127.085 41.972 127.227 41.4358 127.501 40.9907L127.085 38.6943V38.3099C127.085 38.057 127.227 37.9254 127.501 37.9254C127.227 37.4196 127.085 37.0049 127.085 36.6811L127.501 35.9123C127.227 35.4672 127.085 34.9614 127.085 34.3847C127.151 33.8789 127.435 33.6159 127.917 33.6159C130.052 33.6159 132.253 34.7287 134.53 36.9543V25.8061C134.596 25.3003 134.87 25.0372 135.362 25.0372ZM128.333 40.6063V41.4662C128.815 41.1526 129.406 40.9907 130.085 40.9907V40.6063H128.333ZM130.709 38.3099V38.6943L132.362 39.4631V39.0787L130.709 38.3099ZM132.362 44.4201V44.8046L133.6 45.5633V45.1789C132.91 44.673 132.494 44.41 132.362 44.41V44.4201ZM136.611 58.9371V60.4647H137.443V58.9371H136.611ZM140.432 26.1804V28.9523H140.848V26.1804H140.432ZM143.432 25.0372H143.848C144.395 25.0979 144.68 25.361 144.68 25.8061V100.869C144.68 101.375 144.406 101.638 143.848 101.638L142.501 100.586V73.0797H143.432V69.9234H142.501V25.8061C142.644 25.3003 142.95 25.0372 143.432 25.0372Z" fill="#FF1F1F"/>
<path d="M151.906 33.6362H190.041C190.666 33.6362 190.972 33.9599 190.972 34.5872V93.0292H189.625C187.217 86.919 180.669 81.092 169.983 75.5482C167.914 74.5265 164.267 73.5148 159.023 72.4931V62.3666C159.023 61.7293 159.165 61.1931 159.439 60.748L159.023 59.9792V43.358H158.607V71.7242C158.607 72.23 158.333 72.4931 157.786 72.4931H156.954C154.129 72.4931 152.716 72.1087 152.716 71.3499V70.5811H152.3C152.3 71.8557 152.027 72.4931 151.479 72.4931L151.063 71.7242V34.3949C151.129 33.8891 151.402 33.6261 151.895 33.6261L151.906 33.6362ZM152.727 63.621V67.8193H153.143C153.143 65.3408 153.286 64.0662 153.559 63.9953L152.738 63.6109L152.727 63.621ZM168.132 79.18H169.895C174.998 80.3231 177.549 82.6802 177.549 86.2513V87.8699C176.377 92.5841 173.826 94.9412 169.895 94.9412H168.132C163.03 93.9195 160.479 91.5725 160.479 87.8699V86.2513C161.585 81.5371 164.125 79.18 168.132 79.18ZM161.103 43.3681V63.2366C164.892 63.7424 168.406 64.6731 171.647 66.0085C174.888 67.3439 177.811 68.8411 180.428 70.5001V43.3782H161.103V43.3681ZM161.519 65.9073V66.2918H163.687V65.9073H161.519ZM167.815 86.5346V87.5867C167.881 87.9711 168.089 88.1633 168.439 88.1633H169.578C169.994 88.1633 170.202 87.9711 170.202 87.5867V86.5346C170.202 86.1501 169.994 85.9579 169.578 85.9579H168.439C168.023 86.0186 167.815 86.2108 167.815 86.5346ZM169.578 72.5032C169.578 72.9483 170.541 73.4541 172.468 74.0308H172.884V73.6463L169.578 72.5032ZM169.994 67.8193V68.2037C171.023 68.2037 173.684 69.3874 177.954 71.7343H178.37V71.3499C175.687 69.9539 173.027 68.7703 170.41 67.8193H169.994ZM179.191 78.7045V79.0889C179.257 79.5947 179.53 79.8477 180.012 79.8477V79.4632C180.012 78.9574 179.738 78.6944 179.191 78.6944V78.7045ZM181.665 53.4035V56.1754H182.487L182.071 54.1724L182.487 53.4137H181.665V53.4035ZM182.082 46.4334V48.3454H182.498L182.914 46.4334H182.082ZM186.319 57.3186V58.8461H186.735V57.3186H186.319Z" fill="#FF1F1F"/>
<path d="M215.914 35.1638H268.732C269.356 35.2245 269.662 35.4875 269.662 35.9326V74.6074H268.732C267.911 74.223 267.494 73.7172 267.494 73.0798V44.9058H267.078V73.0798H266.257L259.535 68.4971V44.9058H254.991V94.5669H253.644C251.235 88.4567 244.688 82.6297 234.001 77.0859C231.932 76.0642 228.286 75.0525 223.041 74.0308V63.9043C223.041 63.267 223.173 62.7308 223.458 62.2857L223.041 61.5169V44.8957H222.625V73.2619C222.625 73.7677 222.352 74.0308 221.804 74.0308H220.983C218.158 74.0308 216.746 73.6464 216.746 72.8876V72.1188H216.33C216.33 73.3934 216.056 74.0308 215.498 74.0308L215.082 73.2619V35.9225C215.147 35.4167 215.421 35.1537 215.903 35.1537L215.914 35.1638ZM216.746 65.1486V69.3469H217.162C217.162 66.8684 217.293 65.5937 217.578 65.5229L216.746 65.1385V65.1486ZM225.111 44.8957V64.7642C228.899 65.27 232.414 66.2007 235.655 67.5361C238.896 68.8714 241.819 70.3687 244.436 72.0277V44.9058H225.111V44.8957ZM225.527 67.4349V67.8193H227.695V67.4349H225.527ZM233.596 74.0308C233.596 74.4759 234.56 74.9817 236.487 75.5583H236.903V75.1739L233.596 74.0308ZM234.001 69.3469V69.7313C235.031 69.7313 237.691 70.9149 241.961 73.2619H242.377V72.8775C239.695 71.4815 237.034 70.2979 234.417 69.3469H234.001ZM243.21 80.2321V80.6165C243.275 81.1223 243.549 81.3752 244.031 81.3752V80.9908C244.031 80.485 243.757 80.222 243.21 80.222V80.2321ZM245.684 54.9311V57.703H246.505L246.089 55.7L246.505 54.9412H245.684V54.9311ZM246.1 47.961V49.873H246.516L246.932 47.961H246.1ZM250.337 58.8462V60.3737H250.753V58.8462H250.337ZM265.425 44.8957V46.4233H265.841V44.8957H265.425Z" fill="#12395C"/>
<path d="M277.48 33.6362H297.013C298.119 34.142 299.531 35.9326 301.25 38.9878C302.838 35.9326 304.075 34.1522 304.973 33.6362H329.061C329.608 33.6969 329.882 33.96 329.882 34.4051V93.0394H329.466C328.36 92.5336 327.813 92.2098 327.813 92.0884V43.3682H327.396V92.0682H326.98L319.743 87.4855V43.3682H307.239C306.615 43.3682 306.309 43.5907 306.309 44.0358V67.9104H305.477C305.06 67.9104 304.612 67.4956 304.13 66.6661V51.097L304.546 48.8006C304.272 48.8006 304.13 46.9898 304.13 43.358H303.714V66.2817H302.893C298.414 63.8032 296.17 62.397 296.17 62.0834V43.3682H287.487C286.798 43.3682 286.458 43.5907 286.458 44.0358V85.2903H286.042C281.564 83.0647 279.319 81.5371 279.319 80.7076V43.3682H278.903V78.7956C278.279 78.7956 277.973 79.0485 277.973 79.5543H277.557C277.141 79.5543 276.724 79.1699 276.319 78.4111V34.5872C276.319 33.9498 276.692 33.6362 277.458 33.6362H277.48ZM283.995 69.8224V71.3499H284.411V69.8224H283.995ZM297.845 57.4096V61.6079H298.261C298.261 59.1294 298.393 57.8547 298.677 57.7839L297.856 57.3995L297.845 57.4096ZM322.338 73.3631V74.8907H322.754V73.3631H322.338ZM325.645 45.6646V48.052H326.061V45.6646H325.645Z" fill="#12395C"/>
<path d="M337.12 25.0372C337.185 25.543 337.459 25.8061 337.941 25.8061C338.007 25.3003 338.28 25.0372 338.773 25.0372H343.01C343.558 25.0979 343.831 25.361 343.831 25.8061V99.2406C343.831 99.8172 343.558 100.1 343.01 100.1L336.288 96.0944V48.8207C334.766 46.4029 332.598 44.5921 329.773 43.3782C329.149 43.3782 328.842 43.1252 328.842 42.6093C328.842 41.972 328.985 41.4358 329.258 40.9907L328.842 38.6943V38.3099C328.842 38.057 328.985 37.9254 329.258 37.9254C328.985 37.4196 328.842 37.0049 328.842 36.6811L329.258 35.9123C328.985 35.4672 328.842 34.9614 328.842 34.3847C328.908 33.8789 329.193 33.6159 329.663 33.6159C331.799 33.6159 333.999 34.7287 336.277 36.9543V25.8061C336.342 25.3003 336.616 25.0372 337.098 25.0372H337.12ZM330.09 40.6063V41.4662C330.572 41.1526 331.163 40.9907 331.842 40.9907V40.6063H330.09ZM332.466 38.3099V38.6943L334.12 39.4631V39.0787L332.466 38.3099ZM334.12 44.4201V44.8046L335.357 45.5633V45.1789C334.667 44.673 334.251 44.41 334.12 44.41V44.4201ZM338.357 58.9371V60.4647H339.178V58.9371H338.357ZM342.189 26.1804V28.9523H342.605V26.1804H342.189ZM345.178 25.0372H345.594C346.142 25.0979 346.415 25.361 346.415 25.8061V100.869C346.415 101.375 346.142 101.638 345.594 101.638L344.248 100.586V73.0797H345.178V69.9234H344.248V25.8061C344.379 25.3003 344.696 25.0372 345.178 25.0372Z" fill="#12395C"/>
<path d="M353.762 33.6361H399.134C399.956 33.6361 400.404 33.9598 400.481 34.587C400.481 35.0928 400.339 35.6088 400.065 36.1146L400.481 38.502V38.8865C400.481 39.2102 400.339 39.3619 400.065 39.3619C400.339 39.8677 400.481 40.2522 400.481 40.5051L400.065 41.365C400.065 41.6179 400.196 41.7494 400.481 41.7494V92.2704C400.481 92.7762 400.175 93.0392 399.55 93.0392L389.937 87.4955V63.5299H363.265V75.6594H372.047V66.7772L372.463 66.0084C377.423 67.7888 379.908 69.1242 379.908 70.0144V75.6492H380.324V69.63H381.255C381.671 69.63 382.076 70.0144 382.492 70.7732V81.6583C380.149 84.0761 378.112 85.2901 376.393 85.2901H357.167C354.276 83.4489 352.831 82.3968 352.831 82.1338V58.2592C355.316 55.3963 356.762 53.9295 357.167 53.8688H365.017C365.915 53.8688 366.364 52.3715 366.364 49.3771C365.948 45.371 365.225 43.3579 364.196 43.3579H353.762C353.138 43.3579 352.831 43.0746 352.831 42.498V42.1136C352.897 41.6078 353.203 41.3548 353.762 41.3548H389.937V40.9704H353.247L352.831 40.1105C352.831 39.8576 352.962 39.7261 353.247 39.7261L352.831 38.8662V38.4818L353.247 36.0943C352.973 35.6492 352.831 34.9816 352.831 34.0913C352.831 33.7777 353.138 33.6158 353.762 33.6158V33.6361ZM360.682 63.5197V75.6492H361.098V63.5197H360.682ZM363.265 55.8819V56.2663H389.937V55.8819H363.265ZM363.265 77.6523V78.0367H372.047V77.6523H363.265ZM374.225 46.6153V48.234H374.641V46.6153H374.225ZM374.225 49.3872V51.0058H374.641V49.3872H374.225ZM375.988 43.368C376.536 45.5329 376.809 47.8293 376.809 50.2471V51.0058L376.393 53.8688H389.937V43.368H375.988ZM381.255 39.3619V39.7463H383.423V39.3619H381.255ZM384.255 34.8703L384.769 35.7302C385.109 35.4166 386.116 35.2547 387.769 35.2547V34.8703H384.255ZM391.284 49.3872V52.2501H392.116C391.842 51.8657 391.7 50.9148 391.7 49.3872H391.284ZM391.689 43.368V46.1399H392.105V43.368H391.689Z" fill="#12395C"/>
</svg>
