<?xml version="1.0" encoding="utf-8"?>
<!-- Generator: Adobe Illustrator 27.4.0, SVG Export Plug-In . SVG Version: 6.00 Build 0)  -->
<svg version="1.1" id="Layer_1" xmlns="http://www.w3.org/2000/svg" xmlns:xlink="http://www.w3.org/1999/xlink" x="0px" y="0px"
	 viewBox="0 0 189 56" style="enable-background:new 0 0 189 56;" xml:space="preserve">
<style type="text/css">
	.st0{fill:#4527A4;}
	.st1{enable-background:new    ;}
</style>
<g>
	<path class="st0" d="M33.8,24.1c-0.2-0.3-0.5-0.5-0.9-0.6c-0.3-0.1-0.7-0.2-1.1-0.2c-0.4,0-0.8,0.1-1.1,0.2
		c-0.3,0.1-0.6,0.4-0.9,0.6c-0.2,0.3-0.4,0.6-0.6,1.1c-0.1,0.4-0.2,0.9-0.2,1.5s0.1,1.1,0.2,1.5c0.1,0.4,0.3,0.8,0.6,1.1
		c0.2,0.3,0.5,0.5,0.9,0.6c0.3,0.1,0.7,0.2,1.1,0.2c0.4,0,0.8-0.1,1.1-0.2c0.3-0.1,0.6-0.4,0.9-0.6c0.2-0.3,0.4-0.6,0.6-1.1
		c0.1-0.4,0.2-0.9,0.2-1.5s-0.1-1.1-0.2-1.5C34.2,24.8,34,24.4,33.8,24.1z"/>
	<path class="st0" d="M45,19.4L15.5,3.8C13.2,2.5,10.4,2.6,8.2,4s-3.6,3.8-3.6,6.4v2.4v2.2v21.4v5.2c0,2.6,1.4,5,3.6,6.4
		c1.2,0.7,2.5,1.1,3.8,1.1c1.2,0,2.4-0.3,3.5-0.9L45,32.6c2.5-1.3,4-3.8,4-6.6C49,23.2,47.5,20.7,45,19.4z M18.8,31.3h-1.5L13.6,22
		h1.8l1.7,4.6c0.2,0.7,0.4,1.1,0.5,1.3c0.1,0.2,0.2,0.6,0.4,1.1h0c0.2-0.5,0.3-0.9,0.4-1.1c0.1-0.2,0.2-0.7,0.5-1.3l1.7-4.6h1.8
		L18.8,31.3z M25.4,31.3h-1.7V22h1.7V31.3z M36,28.6c-0.2,0.6-0.5,1.1-0.9,1.5c-0.4,0.4-0.9,0.8-1.4,1c-0.6,0.2-1.2,0.4-1.9,0.4
		c-0.7,0-1.4-0.1-1.9-0.4c-0.6-0.2-1-0.6-1.4-1s-0.7-0.9-0.9-1.5c-0.2-0.6-0.3-1.2-0.3-2c0-0.7,0.1-1.4,0.3-2
		c0.2-0.6,0.5-1.1,0.9-1.5c0.4-0.4,0.9-0.8,1.4-1c0.6-0.2,1.2-0.4,1.9-0.4c0.7,0,1.4,0.1,1.9,0.4c0.6,0.2,1,0.6,1.4,1
		c0.4,0.4,0.7,0.9,0.9,1.5c0.2,0.6,0.3,1.2,0.3,2C36.3,27.4,36.2,28,36,28.6z M39.5,26.2L39.5,26.2L39.5,26.2z"/>
</g>
<g>
	<path d="M74.2,21.6c0,1.5-0.4,2.8-1.3,3.9c-0.8,1.1-2.2,1.9-3.9,2.4V28l6.5,9h-4.8l-6-8.5H62V37h-4V15h6.7c1.1,0,2.1,0.1,3.1,0.2
		c1,0.1,1.8,0.3,2.5,0.6c1.3,0.5,2.3,1.2,3,2.2C73.9,18.9,74.2,20.1,74.2,21.6z M64,25.1c0.9,0,1.7,0,2.3-0.1
		c0.6-0.1,1.2-0.2,1.6-0.4c0.8-0.3,1.4-0.7,1.7-1.3c0.3-0.5,0.5-1.1,0.5-1.8c0-0.6-0.1-1.1-0.4-1.6s-0.7-0.8-1.3-1.1
		c-0.4-0.2-0.9-0.3-1.4-0.4c-0.6-0.1-1.3-0.1-2.2-0.1H62v6.7L64,25.1L64,25.1z"/>
	<path d="M83.1,33.6H94V37H79.1V15h14.3v3.4H83.1v5.7h8.8v3.4h-8.8V33.6z"/>
	<path d="M109,30.7c0-0.6-0.1-1-0.4-1.4c-0.3-0.3-0.6-0.6-1.1-0.8c-0.5-0.2-1-0.4-1.6-0.5c-0.6-0.1-1.2-0.3-1.8-0.4
		c-0.9-0.2-1.7-0.4-2.5-0.7c-0.8-0.3-1.5-0.6-2.1-1.1s-1.1-1-1.4-1.7c-0.4-0.7-0.5-1.6-0.5-2.6c0-1.2,0.2-2.2,0.6-3s1-1.6,1.7-2.1
		s1.5-1,2.5-1.3c0.9-0.3,2-0.4,3.2-0.4s2.4,0.1,3.5,0.3c1.2,0.2,2.2,0.5,3.1,0.9v3.5c-1.1-0.4-2.2-0.8-3.3-1s-2-0.3-2.9-0.3
		c-1.3,0-2.4,0.2-3.1,0.7s-1.1,1.2-1.1,2.2c0,0.6,0.1,1,0.4,1.4c0.2,0.4,0.6,0.7,1,0.9c0.4,0.2,0.9,0.4,1.4,0.6
		c0.5,0.1,1.1,0.3,1.7,0.4c0.9,0.2,1.8,0.4,2.7,0.7c0.8,0.3,1.6,0.6,2.3,1.1c0.7,0.5,1.2,1.1,1.6,1.8c0.4,0.7,0.6,1.7,0.6,2.8
		c0,1.2-0.2,2.2-0.7,3.1c-0.4,0.9-1.1,1.6-1.9,2.1c-0.8,0.6-1.8,1-2.9,1.3c-1.1,0.3-2.4,0.4-3.8,0.4c-1.2,0-2.4-0.1-3.5-0.4
		c-1.2-0.2-2.1-0.6-2.9-1v-3.4c1.1,0.5,2.1,0.8,3.2,1c1,0.2,2.1,0.3,3.2,0.3c0.6,0,1.3-0.1,1.9-0.2c0.6-0.1,1.2-0.3,1.7-0.5
		c0.5-0.3,0.9-0.6,1.2-1C108.9,31.9,109,31.3,109,30.7z"/>
	<path d="M126.8,37.4c-1.1,0-2.2-0.1-3.1-0.3c-0.9-0.2-1.7-0.6-2.4-1c-0.7-0.4-1.3-0.9-1.8-1.5c-0.5-0.6-0.9-1.3-1.2-2.1
		c-0.2-0.6-0.4-1.3-0.5-2c-0.1-0.7-0.2-1.6-0.2-2.5V15h4v12.6c0,1.6,0.2,2.8,0.6,3.6c0.4,1,1,1.7,1.8,2.1s1.7,0.7,2.8,0.7
		s2-0.2,2.8-0.7c0.8-0.4,1.4-1.1,1.8-2.1c0.4-0.9,0.6-2.1,0.6-3.6V15h4v13c0,0.9-0.1,1.8-0.2,2.5c-0.1,0.7-0.3,1.4-0.5,2
		c-0.3,0.8-0.7,1.5-1.2,2.1c-0.5,0.6-1.1,1.1-1.8,1.5c-0.7,0.4-1.5,0.7-2.5,1C129,37.3,127.9,37.4,126.8,37.4z"/>
	<path d="M152.5,31.1c0.5-1.7,1.1-3.6,1.8-5.6l3.8-10.5h5.7v22h-4V25.9c0-1.6,0.1-3.5,0.2-5.7h-0.1c-0.2,0.6-0.4,1.3-0.7,2.1
		c-0.3,0.8-0.5,1.5-0.8,2.3L153.8,37h-2.6l-4.6-12.4c-0.3-0.8-0.5-1.5-0.8-2.3c-0.3-0.8-0.5-1.5-0.7-2.1h-0.1c0.1,2,0.2,3.9,0.2,5.7
		V37h-4V15h5.6l3.8,10.5c0.6,1.7,1.2,3.6,1.8,5.6L152.5,31.1L152.5,31.1z"/>
	<path d="M173.1,33.6h10.8V37h-14.8V15h14.3v3.4h-10.2v5.7h8.8v3.4h-8.8L173.1,33.6L173.1,33.6z"/>
</g>
<g>
	<g class="st1">
		<path d="M97.4,41.5c0.7,0,1.3,0.1,1.8,0.3c0.5,0.2,0.8,0.4,1,0.8c0.2,0.4,0.3,0.8,0.3,1.4c0,0.5-0.1,0.8-0.3,1.2
			c-0.2,0.3-0.4,0.6-0.7,0.8c-0.3,0.2-0.6,0.3-0.9,0.4l2.4,3.9H100l-2.1-3.6H96v3.6h-1v-8.7H97.4z M97.3,42.4H96v3.4h1.4
			c0.7,0,1.2-0.1,1.6-0.4c0.3-0.3,0.5-0.7,0.5-1.3c0-0.6-0.2-1-0.5-1.3C98.6,42.5,98.1,42.4,97.3,42.4z"/>
		<path d="M105,43.6c0.6,0,1,0.1,1.4,0.4c0.4,0.2,0.7,0.6,0.9,1c0.2,0.4,0.3,1,0.3,1.6v0.6h-4.5c0,0.8,0.2,1.4,0.6,1.8
			c0.4,0.4,0.9,0.6,1.6,0.6c0.4,0,0.8,0,1.1-0.1c0.3-0.1,0.6-0.2,1-0.3v0.9c-0.3,0.1-0.7,0.3-1,0.3c-0.3,0.1-0.7,0.1-1.2,0.1
			c-0.6,0-1.2-0.1-1.6-0.4c-0.5-0.3-0.8-0.6-1.1-1.1c-0.3-0.5-0.4-1.1-0.4-1.8c0-0.7,0.1-1.3,0.4-1.8c0.2-0.5,0.6-0.9,1-1.2
			C103.9,43.7,104.4,43.6,105,43.6z M104.9,44.4c-0.5,0-1,0.2-1.3,0.5c-0.3,0.3-0.5,0.8-0.6,1.5h3.5c0-0.4-0.1-0.7-0.2-1
			c-0.1-0.3-0.3-0.5-0.5-0.7C105.6,44.5,105.3,44.4,104.9,44.4z"/>
		<path d="M113.6,48.5c0,0.4-0.1,0.8-0.3,1.1c-0.2,0.3-0.5,0.5-0.9,0.6c-0.4,0.1-0.9,0.2-1.4,0.2c-0.5,0-0.9,0-1.2-0.1
			c-0.3-0.1-0.6-0.2-0.9-0.3V49c0.3,0.1,0.6,0.3,1,0.4c0.4,0.1,0.7,0.2,1.1,0.2c0.6,0,1-0.1,1.2-0.3c0.3-0.2,0.4-0.4,0.4-0.7
			c0-0.2-0.1-0.3-0.2-0.5c-0.1-0.1-0.3-0.3-0.5-0.4s-0.6-0.3-1-0.4c-0.4-0.2-0.8-0.3-1.1-0.5c-0.3-0.2-0.5-0.3-0.7-0.6
			c-0.2-0.2-0.2-0.5-0.2-0.9c0-0.6,0.2-1,0.7-1.3c0.4-0.3,1-0.4,1.8-0.4c0.4,0,0.8,0,1.1,0.1c0.3,0.1,0.7,0.2,1,0.3l-0.3,0.8
			c-0.3-0.1-0.6-0.2-0.9-0.3c-0.3-0.1-0.6-0.1-0.9-0.1c-0.5,0-0.8,0.1-1.1,0.2c-0.2,0.2-0.4,0.4-0.4,0.6c0,0.2,0.1,0.4,0.2,0.5
			c0.1,0.1,0.3,0.3,0.5,0.4c0.3,0.1,0.6,0.3,1,0.4c0.4,0.2,0.8,0.3,1.1,0.5c0.3,0.2,0.5,0.4,0.7,0.6
			C113.5,47.8,113.6,48.1,113.6,48.5z"/>
		<path d="M120.6,43.7v6.6h-0.8l-0.1-0.9h-0.1c-0.1,0.2-0.3,0.4-0.5,0.6c-0.2,0.2-0.5,0.3-0.7,0.4c-0.3,0.1-0.6,0.1-0.9,0.1
			c-0.5,0-1-0.1-1.3-0.3c-0.4-0.2-0.6-0.4-0.8-0.8c-0.2-0.4-0.3-0.8-0.3-1.4v-4.3h1v4.2c0,0.5,0.1,1,0.4,1.2
			c0.2,0.3,0.6,0.4,1.1,0.4c0.5,0,0.9-0.1,1.2-0.3c0.3-0.2,0.5-0.5,0.6-0.8c0.1-0.4,0.2-0.8,0.2-1.3v-3.4H120.6z"/>
		<path d="M129.8,43.6c0.7,0,1.3,0.2,1.6,0.6c0.4,0.4,0.5,1,0.5,1.8v4.3h-1V46c0-0.5-0.1-0.9-0.3-1.2s-0.6-0.4-1-0.4
			c-0.6,0-1.1,0.2-1.4,0.5c-0.3,0.4-0.4,0.9-0.4,1.6v3.7h-1V46c0-0.4-0.1-0.6-0.2-0.9c-0.1-0.2-0.3-0.4-0.5-0.5
			c-0.2-0.1-0.5-0.2-0.8-0.2c-0.4,0-0.8,0.1-1,0.3c-0.3,0.2-0.5,0.4-0.6,0.8c-0.1,0.4-0.2,0.8-0.2,1.3v3.5h-1v-6.6h0.8l0.1,0.9h0.1
			c0.1-0.2,0.3-0.4,0.5-0.6c0.2-0.2,0.4-0.3,0.7-0.4s0.5-0.1,0.8-0.1c0.5,0,0.9,0.1,1.3,0.3c0.3,0.2,0.6,0.5,0.7,0.8h0.1
			c0.2-0.4,0.5-0.7,0.9-0.8C128.9,43.7,129.3,43.6,129.8,43.6z"/>
		<path d="M136.5,43.6c0.6,0,1,0.1,1.4,0.4c0.4,0.2,0.7,0.6,0.9,1c0.2,0.4,0.3,1,0.3,1.6v0.6h-4.5c0,0.8,0.2,1.4,0.6,1.8
			c0.4,0.4,0.9,0.6,1.6,0.6c0.4,0,0.8,0,1.1-0.1c0.3-0.1,0.6-0.2,1-0.3v0.9c-0.3,0.1-0.7,0.3-1,0.3c-0.3,0.1-0.7,0.1-1.2,0.1
			c-0.6,0-1.2-0.1-1.6-0.4c-0.5-0.3-0.8-0.6-1.1-1.1c-0.3-0.5-0.4-1.1-0.4-1.8c0-0.7,0.1-1.3,0.4-1.8c0.2-0.5,0.6-0.9,1-1.2
			C135.4,43.7,135.9,43.6,136.5,43.6z M136.5,44.4c-0.5,0-1,0.2-1.3,0.5c-0.3,0.3-0.5,0.8-0.6,1.5h3.5c0-0.4-0.1-0.7-0.2-1
			c-0.1-0.3-0.3-0.5-0.5-0.7C137.2,44.5,136.9,44.4,136.5,44.4z"/>
		<path d="M144.2,41.5h2.5c1.1,0,1.9,0.2,2.5,0.5c0.5,0.3,0.8,0.9,0.8,1.7c0,0.3-0.1,0.6-0.2,0.9c-0.1,0.3-0.3,0.5-0.6,0.7
			c-0.2,0.2-0.6,0.3-0.9,0.4v0.1c0.4,0.1,0.7,0.2,1,0.3c0.3,0.2,0.5,0.4,0.7,0.7s0.3,0.7,0.3,1.1c0,0.5-0.1,1-0.4,1.4
			c-0.2,0.4-0.6,0.7-1.1,0.8c-0.5,0.2-1,0.3-1.6,0.3h-3V41.5z M145.2,45.3h1.7c0.8,0,1.3-0.1,1.6-0.4c0.3-0.3,0.4-0.6,0.4-1.1
			c0-0.5-0.2-0.9-0.5-1.1c-0.3-0.2-0.9-0.3-1.7-0.3h-1.5V45.3z M145.2,46.1v3.3h1.8c0.8,0,1.3-0.2,1.7-0.5c0.3-0.3,0.5-0.7,0.5-1.2
			c0-0.3-0.1-0.6-0.2-0.8c-0.1-0.2-0.4-0.4-0.7-0.5c-0.3-0.1-0.8-0.2-1.3-0.2H145.2z"/>
		<path d="M157.4,43.7v6.6h-0.8l-0.1-0.9h-0.1c-0.1,0.2-0.3,0.4-0.5,0.6c-0.2,0.2-0.5,0.3-0.7,0.4c-0.3,0.1-0.6,0.1-0.9,0.1
			c-0.5,0-1-0.1-1.3-0.3s-0.6-0.4-0.8-0.8c-0.2-0.4-0.3-0.8-0.3-1.4v-4.3h1v4.2c0,0.5,0.1,1,0.4,1.2c0.2,0.3,0.6,0.4,1.1,0.4
			c0.5,0,0.9-0.1,1.2-0.3c0.3-0.2,0.5-0.5,0.6-0.8c0.1-0.4,0.2-0.8,0.2-1.3v-3.4H157.4z"/>
		<path d="M160,41.2c0.2,0,0.3,0.1,0.4,0.2c0.1,0.1,0.2,0.3,0.2,0.5c0,0.2-0.1,0.4-0.2,0.5c-0.1,0.1-0.3,0.2-0.4,0.2
			c-0.2,0-0.3-0.1-0.4-0.2c-0.1-0.1-0.2-0.3-0.2-0.5c0-0.2,0.1-0.4,0.2-0.5C159.7,41.3,159.8,41.2,160,41.2z M160.5,43.7v6.6h-1
			v-6.6H160.5z"/>
		<path d="M163.6,50.2h-1v-9.3h1V50.2z"/>
		<path d="M168,50.4c-0.8,0-1.5-0.3-2-0.8c-0.5-0.6-0.7-1.4-0.7-2.5c0-1.1,0.2-2,0.7-2.6c0.5-0.6,1.2-0.9,2-0.9c0.3,0,0.6,0,0.9,0.1
			c0.3,0.1,0.5,0.2,0.7,0.4c0.2,0.2,0.3,0.3,0.5,0.5h0.1c0-0.1,0-0.3,0-0.5c0-0.2,0-0.4,0-0.5v-2.6h1v9.3h-0.8l-0.1-0.9h0
			c-0.1,0.2-0.3,0.4-0.5,0.5c-0.2,0.2-0.4,0.3-0.7,0.4C168.6,50.3,168.3,50.4,168,50.4z M168.1,49.5c0.7,0,1.2-0.2,1.5-0.6
			c0.3-0.4,0.4-1,0.4-1.8V47c0-0.8-0.1-1.5-0.4-1.9c-0.3-0.4-0.8-0.7-1.5-0.7c-0.6,0-1.1,0.2-1.4,0.7c-0.3,0.5-0.5,1.1-0.5,1.9
			c0,0.8,0.2,1.4,0.5,1.9C167.1,49.3,167.5,49.5,168.1,49.5z"/>
		<path d="M175.7,43.6c0.6,0,1,0.1,1.4,0.4c0.4,0.2,0.7,0.6,0.9,1c0.2,0.4,0.3,1,0.3,1.6v0.6h-4.5c0,0.8,0.2,1.4,0.6,1.8
			c0.4,0.4,0.9,0.6,1.6,0.6c0.4,0,0.8,0,1.1-0.1s0.6-0.2,1-0.3v0.9c-0.3,0.1-0.7,0.3-1,0.3c-0.3,0.1-0.7,0.1-1.2,0.1
			c-0.6,0-1.2-0.1-1.6-0.4c-0.5-0.3-0.8-0.6-1.1-1.1c-0.3-0.5-0.4-1.1-0.4-1.8c0-0.7,0.1-1.3,0.4-1.8c0.2-0.5,0.6-0.9,1-1.2
			C174.6,43.7,175.1,43.6,175.7,43.6z M175.6,44.4c-0.5,0-1,0.2-1.3,0.5c-0.3,0.3-0.5,0.8-0.6,1.5h3.5c0-0.4-0.1-0.7-0.2-1
			c-0.1-0.3-0.3-0.5-0.5-0.7C176.3,44.5,176,44.4,175.6,44.4z"/>
		<path d="M183,43.6c0.1,0,0.3,0,0.4,0c0.1,0,0.3,0,0.4,0.1l-0.1,0.9c-0.1,0-0.2,0-0.4-0.1s-0.3,0-0.4,0c-0.3,0-0.5,0.1-0.7,0.2
			c-0.2,0.1-0.4,0.3-0.6,0.5c-0.2,0.2-0.3,0.4-0.4,0.7c-0.1,0.3-0.1,0.6-0.1,0.9v3.5h-1v-6.6h0.8l0.1,1.2h0c0.1-0.2,0.3-0.5,0.5-0.7
			c0.2-0.2,0.4-0.4,0.7-0.5C182.4,43.6,182.7,43.6,183,43.6z"/>
	</g>
</g>
</svg>
